<?xml version="1.0" encoding="utf-8" standalone="no"?>
<!DOCTYPE svg PUBLIC "-//W3C//DTD SVG 1.1//EN"
  "http://www.w3.org/Graphics/SVG/1.1/DTD/svg11.dtd">
<svg xmlns:xlink="http://www.w3.org/1999/xlink" width="504pt" height="360pt" viewBox="0 0 504 360" xmlns="http://www.w3.org/2000/svg" version="1.1">
 <metadata>
  <rdf:RDF xmlns:dc="http://purl.org/dc/elements/1.1/" xmlns:cc="http://creativecommons.org/ns#" xmlns:rdf="http://www.w3.org/1999/02/22-rdf-syntax-ns#">
   <cc:Work>
    <dc:type rdf:resource="http://purl.org/dc/dcmitype/StillImage"/>
    <dc:date>2022-08-20T01:11:32.673229</dc:date>
    <dc:format>image/svg+xml</dc:format>
    <dc:creator>
     <cc:Agent>
      <dc:title>Matplotlib v3.5.1, https://matplotlib.org/</dc:title>
     </cc:Agent>
    </dc:creator>
   </cc:Work>
  </rdf:RDF>
 </metadata>
 <defs>
  <style type="text/css">*{stroke-linejoin: round; stroke-linecap: butt}</style>
 </defs>
 <g id="figure_1">
  <g id="patch_1">
   <path d="M 0 360 
L 504 360 
L 504 0 
L 0 0 
z
" style="fill: #ffffff"/>
  </g>
  <g id="axes_1">
   <g id="patch_2">
    <path d="M 55.01 297.88 
L 474.165 297.88 
L 474.165 31.008 
L 55.01 31.008 
z
" style="fill: #ffffff"/>
   </g>
   <g id="matplotlib.axis_1">
    <g id="xtick_1">
     <g id="line2d_1">
      <path d="M 55.01 297.88 
L 55.01 31.008 
" clip-path="url(#pdf1b3375e1)" style="fill: none; stroke: #b0b0b0; stroke-opacity: 0.5; stroke-width: 0.8; stroke-linecap: square"/>
     </g>
     <g id="line2d_2">
      <defs>
       <path id="mc5a798189b" d="M 0 0 
L 0 3.5 
" style="stroke: #000000; stroke-width: 0.8"/>
      </defs>
      <g>
       <use xlink:href="#mc5a798189b" x="55.01" y="297.88" style="stroke: #000000; stroke-width: 0.8"/>
      </g>
     </g>
     <g id="text_1">
      <!-- 0 -->
      <g transform="translate(48.6475 320.076875)scale(0.2 -0.2)">
       <defs>
        <path id="DejaVuSans-30" d="M 2034 4250 
Q 1547 4250 1301 3770 
Q 1056 3291 1056 2328 
Q 1056 1369 1301 889 
Q 1547 409 2034 409 
Q 2525 409 2770 889 
Q 3016 1369 3016 2328 
Q 3016 3291 2770 3770 
Q 2525 4250 2034 4250 
z
M 2034 4750 
Q 2819 4750 3233 4129 
Q 3647 3509 3647 2328 
Q 3647 1150 3233 529 
Q 2819 -91 2034 -91 
Q 1250 -91 836 529 
Q 422 1150 422 2328 
Q 422 3509 836 4129 
Q 1250 4750 2034 4750 
z
" transform="scale(0.015625)"/>
       </defs>
       <use xlink:href="#DejaVuSans-30"/>
      </g>
     </g>
    </g>
    <g id="xtick_2">
     <g id="line2d_3">
      <path d="M 96.9255 297.88 
L 96.9255 31.008 
" clip-path="url(#pdf1b3375e1)" style="fill: none; stroke: #b0b0b0; stroke-opacity: 0.5; stroke-width: 0.8; stroke-linecap: square"/>
     </g>
     <g id="line2d_4">
      <g>
       <use xlink:href="#mc5a798189b" x="96.9255" y="297.88" style="stroke: #000000; stroke-width: 0.8"/>
      </g>
     </g>
     <g id="text_2">
      <!-- 10 -->
      <g transform="translate(84.2005 320.076875)scale(0.2 -0.2)">
       <defs>
        <path id="DejaVuSans-31" d="M 794 531 
L 1825 531 
L 1825 4091 
L 703 3866 
L 703 4441 
L 1819 4666 
L 2450 4666 
L 2450 531 
L 3481 531 
L 3481 0 
L 794 0 
L 794 531 
z
" transform="scale(0.015625)"/>
       </defs>
       <use xlink:href="#DejaVuSans-31"/>
       <use xlink:href="#DejaVuSans-30" x="63.623047"/>
      </g>
     </g>
    </g>
    <g id="xtick_3">
     <g id="line2d_5">
      <path d="M 138.841 297.88 
L 138.841 31.008 
" clip-path="url(#pdf1b3375e1)" style="fill: none; stroke: #b0b0b0; stroke-opacity: 0.5; stroke-width: 0.8; stroke-linecap: square"/>
     </g>
     <g id="line2d_6">
      <g>
       <use xlink:href="#mc5a798189b" x="138.841" y="297.88" style="stroke: #000000; stroke-width: 0.8"/>
      </g>
     </g>
     <g id="text_3">
      <!-- 20 -->
      <g transform="translate(126.116 320.076875)scale(0.2 -0.2)">
       <defs>
        <path id="DejaVuSans-32" d="M 1228 531 
L 3431 531 
L 3431 0 
L 469 0 
L 469 531 
Q 828 903 1448 1529 
Q 2069 2156 2228 2338 
Q 2531 2678 2651 2914 
Q 2772 3150 2772 3378 
Q 2772 3750 2511 3984 
Q 2250 4219 1831 4219 
Q 1534 4219 1204 4116 
Q 875 4013 500 3803 
L 500 4441 
Q 881 4594 1212 4672 
Q 1544 4750 1819 4750 
Q 2544 4750 2975 4387 
Q 3406 4025 3406 3419 
Q 3406 3131 3298 2873 
Q 3191 2616 2906 2266 
Q 2828 2175 2409 1742 
Q 1991 1309 1228 531 
z
" transform="scale(0.015625)"/>
       </defs>
       <use xlink:href="#DejaVuSans-32"/>
       <use xlink:href="#DejaVuSans-30" x="63.623047"/>
      </g>
     </g>
    </g>
    <g id="xtick_4">
     <g id="line2d_7">
      <path d="M 180.7565 297.88 
L 180.7565 31.008 
" clip-path="url(#pdf1b3375e1)" style="fill: none; stroke: #b0b0b0; stroke-opacity: 0.5; stroke-width: 0.8; stroke-linecap: square"/>
     </g>
     <g id="line2d_8">
      <g>
       <use xlink:href="#mc5a798189b" x="180.7565" y="297.88" style="stroke: #000000; stroke-width: 0.8"/>
      </g>
     </g>
     <g id="text_4">
      <!-- 30 -->
      <g transform="translate(168.0315 320.076875)scale(0.2 -0.2)">
       <defs>
        <path id="DejaVuSans-33" d="M 2597 2516 
Q 3050 2419 3304 2112 
Q 3559 1806 3559 1356 
Q 3559 666 3084 287 
Q 2609 -91 1734 -91 
Q 1441 -91 1130 -33 
Q 819 25 488 141 
L 488 750 
Q 750 597 1062 519 
Q 1375 441 1716 441 
Q 2309 441 2620 675 
Q 2931 909 2931 1356 
Q 2931 1769 2642 2001 
Q 2353 2234 1838 2234 
L 1294 2234 
L 1294 2753 
L 1863 2753 
Q 2328 2753 2575 2939 
Q 2822 3125 2822 3475 
Q 2822 3834 2567 4026 
Q 2313 4219 1838 4219 
Q 1578 4219 1281 4162 
Q 984 4106 628 3988 
L 628 4550 
Q 988 4650 1302 4700 
Q 1616 4750 1894 4750 
Q 2613 4750 3031 4423 
Q 3450 4097 3450 3541 
Q 3450 3153 3228 2886 
Q 3006 2619 2597 2516 
z
" transform="scale(0.015625)"/>
       </defs>
       <use xlink:href="#DejaVuSans-33"/>
       <use xlink:href="#DejaVuSans-30" x="63.623047"/>
      </g>
     </g>
    </g>
    <g id="xtick_5">
     <g id="line2d_9">
      <path d="M 222.672 297.88 
L 222.672 31.008 
" clip-path="url(#pdf1b3375e1)" style="fill: none; stroke: #b0b0b0; stroke-opacity: 0.5; stroke-width: 0.8; stroke-linecap: square"/>
     </g>
     <g id="line2d_10">
      <g>
       <use xlink:href="#mc5a798189b" x="222.672" y="297.88" style="stroke: #000000; stroke-width: 0.8"/>
      </g>
     </g>
     <g id="text_5">
      <!-- 40 -->
      <g transform="translate(209.947 320.076875)scale(0.2 -0.2)">
       <defs>
        <path id="DejaVuSans-34" d="M 2419 4116 
L 825 1625 
L 2419 1625 
L 2419 4116 
z
M 2253 4666 
L 3047 4666 
L 3047 1625 
L 3713 1625 
L 3713 1100 
L 3047 1100 
L 3047 0 
L 2419 0 
L 2419 1100 
L 313 1100 
L 313 1709 
L 2253 4666 
z
" transform="scale(0.015625)"/>
       </defs>
       <use xlink:href="#DejaVuSans-34"/>
       <use xlink:href="#DejaVuSans-30" x="63.623047"/>
      </g>
     </g>
    </g>
    <g id="xtick_6">
     <g id="line2d_11">
      <path d="M 264.5875 297.88 
L 264.5875 31.008 
" clip-path="url(#pdf1b3375e1)" style="fill: none; stroke: #b0b0b0; stroke-opacity: 0.5; stroke-width: 0.8; stroke-linecap: square"/>
     </g>
     <g id="line2d_12">
      <g>
       <use xlink:href="#mc5a798189b" x="264.5875" y="297.88" style="stroke: #000000; stroke-width: 0.8"/>
      </g>
     </g>
     <g id="text_6">
      <!-- 50 -->
      <g transform="translate(251.8625 320.076875)scale(0.2 -0.2)">
       <defs>
        <path id="DejaVuSans-35" d="M 691 4666 
L 3169 4666 
L 3169 4134 
L 1269 4134 
L 1269 2991 
Q 1406 3038 1543 3061 
Q 1681 3084 1819 3084 
Q 2600 3084 3056 2656 
Q 3513 2228 3513 1497 
Q 3513 744 3044 326 
Q 2575 -91 1722 -91 
Q 1428 -91 1123 -41 
Q 819 9 494 109 
L 494 744 
Q 775 591 1075 516 
Q 1375 441 1709 441 
Q 2250 441 2565 725 
Q 2881 1009 2881 1497 
Q 2881 1984 2565 2268 
Q 2250 2553 1709 2553 
Q 1456 2553 1204 2497 
Q 953 2441 691 2322 
L 691 4666 
z
" transform="scale(0.015625)"/>
       </defs>
       <use xlink:href="#DejaVuSans-35"/>
       <use xlink:href="#DejaVuSans-30" x="63.623047"/>
      </g>
     </g>
    </g>
    <g id="xtick_7">
     <g id="line2d_13">
      <path d="M 306.503 297.88 
L 306.503 31.008 
" clip-path="url(#pdf1b3375e1)" style="fill: none; stroke: #b0b0b0; stroke-opacity: 0.5; stroke-width: 0.8; stroke-linecap: square"/>
     </g>
     <g id="line2d_14">
      <g>
       <use xlink:href="#mc5a798189b" x="306.503" y="297.88" style="stroke: #000000; stroke-width: 0.8"/>
      </g>
     </g>
     <g id="text_7">
      <!-- 60 -->
      <g transform="translate(293.778 320.076875)scale(0.2 -0.2)">
       <defs>
        <path id="DejaVuSans-36" d="M 2113 2584 
Q 1688 2584 1439 2293 
Q 1191 2003 1191 1497 
Q 1191 994 1439 701 
Q 1688 409 2113 409 
Q 2538 409 2786 701 
Q 3034 994 3034 1497 
Q 3034 2003 2786 2293 
Q 2538 2584 2113 2584 
z
M 3366 4563 
L 3366 3988 
Q 3128 4100 2886 4159 
Q 2644 4219 2406 4219 
Q 1781 4219 1451 3797 
Q 1122 3375 1075 2522 
Q 1259 2794 1537 2939 
Q 1816 3084 2150 3084 
Q 2853 3084 3261 2657 
Q 3669 2231 3669 1497 
Q 3669 778 3244 343 
Q 2819 -91 2113 -91 
Q 1303 -91 875 529 
Q 447 1150 447 2328 
Q 447 3434 972 4092 
Q 1497 4750 2381 4750 
Q 2619 4750 2861 4703 
Q 3103 4656 3366 4563 
z
" transform="scale(0.015625)"/>
       </defs>
       <use xlink:href="#DejaVuSans-36"/>
       <use xlink:href="#DejaVuSans-30" x="63.623047"/>
      </g>
     </g>
    </g>
    <g id="xtick_8">
     <g id="line2d_15">
      <path d="M 348.4185 297.88 
L 348.4185 31.008 
" clip-path="url(#pdf1b3375e1)" style="fill: none; stroke: #b0b0b0; stroke-opacity: 0.5; stroke-width: 0.8; stroke-linecap: square"/>
     </g>
     <g id="line2d_16">
      <g>
       <use xlink:href="#mc5a798189b" x="348.4185" y="297.88" style="stroke: #000000; stroke-width: 0.8"/>
      </g>
     </g>
     <g id="text_8">
      <!-- 70 -->
      <g transform="translate(335.6935 320.076875)scale(0.2 -0.2)">
       <defs>
        <path id="DejaVuSans-37" d="M 525 4666 
L 3525 4666 
L 3525 4397 
L 1831 0 
L 1172 0 
L 2766 4134 
L 525 4134 
L 525 4666 
z
" transform="scale(0.015625)"/>
       </defs>
       <use xlink:href="#DejaVuSans-37"/>
       <use xlink:href="#DejaVuSans-30" x="63.623047"/>
      </g>
     </g>
    </g>
    <g id="xtick_9">
     <g id="line2d_17">
      <path d="M 390.334 297.88 
L 390.334 31.008 
" clip-path="url(#pdf1b3375e1)" style="fill: none; stroke: #b0b0b0; stroke-opacity: 0.5; stroke-width: 0.8; stroke-linecap: square"/>
     </g>
     <g id="line2d_18">
      <g>
       <use xlink:href="#mc5a798189b" x="390.334" y="297.88" style="stroke: #000000; stroke-width: 0.8"/>
      </g>
     </g>
     <g id="text_9">
      <!-- 80 -->
      <g transform="translate(377.609 320.076875)scale(0.2 -0.2)">
       <defs>
        <path id="DejaVuSans-38" d="M 2034 2216 
Q 1584 2216 1326 1975 
Q 1069 1734 1069 1313 
Q 1069 891 1326 650 
Q 1584 409 2034 409 
Q 2484 409 2743 651 
Q 3003 894 3003 1313 
Q 3003 1734 2745 1975 
Q 2488 2216 2034 2216 
z
M 1403 2484 
Q 997 2584 770 2862 
Q 544 3141 544 3541 
Q 544 4100 942 4425 
Q 1341 4750 2034 4750 
Q 2731 4750 3128 4425 
Q 3525 4100 3525 3541 
Q 3525 3141 3298 2862 
Q 3072 2584 2669 2484 
Q 3125 2378 3379 2068 
Q 3634 1759 3634 1313 
Q 3634 634 3220 271 
Q 2806 -91 2034 -91 
Q 1263 -91 848 271 
Q 434 634 434 1313 
Q 434 1759 690 2068 
Q 947 2378 1403 2484 
z
M 1172 3481 
Q 1172 3119 1398 2916 
Q 1625 2713 2034 2713 
Q 2441 2713 2670 2916 
Q 2900 3119 2900 3481 
Q 2900 3844 2670 4047 
Q 2441 4250 2034 4250 
Q 1625 4250 1398 4047 
Q 1172 3844 1172 3481 
z
" transform="scale(0.015625)"/>
       </defs>
       <use xlink:href="#DejaVuSans-38"/>
       <use xlink:href="#DejaVuSans-30" x="63.623047"/>
      </g>
     </g>
    </g>
    <g id="xtick_10">
     <g id="line2d_19">
      <path d="M 432.2495 297.88 
L 432.2495 31.008 
" clip-path="url(#pdf1b3375e1)" style="fill: none; stroke: #b0b0b0; stroke-opacity: 0.5; stroke-width: 0.8; stroke-linecap: square"/>
     </g>
     <g id="line2d_20">
      <g>
       <use xlink:href="#mc5a798189b" x="432.2495" y="297.88" style="stroke: #000000; stroke-width: 0.8"/>
      </g>
     </g>
     <g id="text_10">
      <!-- 90 -->
      <g transform="translate(419.5245 320.076875)scale(0.2 -0.2)">
       <defs>
        <path id="DejaVuSans-39" d="M 703 97 
L 703 672 
Q 941 559 1184 500 
Q 1428 441 1663 441 
Q 2288 441 2617 861 
Q 2947 1281 2994 2138 
Q 2813 1869 2534 1725 
Q 2256 1581 1919 1581 
Q 1219 1581 811 2004 
Q 403 2428 403 3163 
Q 403 3881 828 4315 
Q 1253 4750 1959 4750 
Q 2769 4750 3195 4129 
Q 3622 3509 3622 2328 
Q 3622 1225 3098 567 
Q 2575 -91 1691 -91 
Q 1453 -91 1209 -44 
Q 966 3 703 97 
z
M 1959 2075 
Q 2384 2075 2632 2365 
Q 2881 2656 2881 3163 
Q 2881 3666 2632 3958 
Q 2384 4250 1959 4250 
Q 1534 4250 1286 3958 
Q 1038 3666 1038 3163 
Q 1038 2656 1286 2365 
Q 1534 2075 1959 2075 
z
" transform="scale(0.015625)"/>
       </defs>
       <use xlink:href="#DejaVuSans-39"/>
       <use xlink:href="#DejaVuSans-30" x="63.623047"/>
      </g>
     </g>
    </g>
    <g id="xtick_11">
     <g id="line2d_21">
      <path d="M 474.165 297.88 
L 474.165 31.008 
" clip-path="url(#pdf1b3375e1)" style="fill: none; stroke: #b0b0b0; stroke-opacity: 0.5; stroke-width: 0.8; stroke-linecap: square"/>
     </g>
     <g id="line2d_22">
      <g>
       <use xlink:href="#mc5a798189b" x="474.165" y="297.88" style="stroke: #000000; stroke-width: 0.8"/>
      </g>
     </g>
     <g id="text_11">
      <!-- 100 -->
      <g transform="translate(455.0775 320.076875)scale(0.2 -0.2)">
       <use xlink:href="#DejaVuSans-31"/>
       <use xlink:href="#DejaVuSans-30" x="63.623047"/>
       <use xlink:href="#DejaVuSans-30" x="127.246094"/>
      </g>
     </g>
    </g>
    <g id="text_12">
     <!-- S1LY [p.e.] -->
     <g transform="translate(211.682812 343.433125)scale(0.2 -0.2)">
      <defs>
       <path id="DejaVuSans-53" d="M 3425 4513 
L 3425 3897 
Q 3066 4069 2747 4153 
Q 2428 4238 2131 4238 
Q 1616 4238 1336 4038 
Q 1056 3838 1056 3469 
Q 1056 3159 1242 3001 
Q 1428 2844 1947 2747 
L 2328 2669 
Q 3034 2534 3370 2195 
Q 3706 1856 3706 1288 
Q 3706 609 3251 259 
Q 2797 -91 1919 -91 
Q 1588 -91 1214 -16 
Q 841 59 441 206 
L 441 856 
Q 825 641 1194 531 
Q 1563 422 1919 422 
Q 2459 422 2753 634 
Q 3047 847 3047 1241 
Q 3047 1584 2836 1778 
Q 2625 1972 2144 2069 
L 1759 2144 
Q 1053 2284 737 2584 
Q 422 2884 422 3419 
Q 422 4038 858 4394 
Q 1294 4750 2059 4750 
Q 2388 4750 2728 4690 
Q 3069 4631 3425 4513 
z
" transform="scale(0.015625)"/>
       <path id="DejaVuSans-4c" d="M 628 4666 
L 1259 4666 
L 1259 531 
L 3531 531 
L 3531 0 
L 628 0 
L 628 4666 
z
" transform="scale(0.015625)"/>
       <path id="DejaVuSans-59" d="M -13 4666 
L 666 4666 
L 1959 2747 
L 3244 4666 
L 3922 4666 
L 2272 2222 
L 2272 0 
L 1638 0 
L 1638 2222 
L -13 4666 
z
" transform="scale(0.015625)"/>
       <path id="DejaVuSans-20" transform="scale(0.015625)"/>
       <path id="DejaVuSans-5b" d="M 550 4863 
L 1875 4863 
L 1875 4416 
L 1125 4416 
L 1125 -397 
L 1875 -397 
L 1875 -844 
L 550 -844 
L 550 4863 
z
" transform="scale(0.015625)"/>
       <path id="DejaVuSans-70" d="M 1159 525 
L 1159 -1331 
L 581 -1331 
L 581 3500 
L 1159 3500 
L 1159 2969 
Q 1341 3281 1617 3432 
Q 1894 3584 2278 3584 
Q 2916 3584 3314 3078 
Q 3713 2572 3713 1747 
Q 3713 922 3314 415 
Q 2916 -91 2278 -91 
Q 1894 -91 1617 61 
Q 1341 213 1159 525 
z
M 3116 1747 
Q 3116 2381 2855 2742 
Q 2594 3103 2138 3103 
Q 1681 3103 1420 2742 
Q 1159 2381 1159 1747 
Q 1159 1113 1420 752 
Q 1681 391 2138 391 
Q 2594 391 2855 752 
Q 3116 1113 3116 1747 
z
" transform="scale(0.015625)"/>
       <path id="DejaVuSans-2e" d="M 684 794 
L 1344 794 
L 1344 0 
L 684 0 
L 684 794 
z
" transform="scale(0.015625)"/>
       <path id="DejaVuSans-65" d="M 3597 1894 
L 3597 1613 
L 953 1613 
Q 991 1019 1311 708 
Q 1631 397 2203 397 
Q 2534 397 2845 478 
Q 3156 559 3463 722 
L 3463 178 
Q 3153 47 2828 -22 
Q 2503 -91 2169 -91 
Q 1331 -91 842 396 
Q 353 884 353 1716 
Q 353 2575 817 3079 
Q 1281 3584 2069 3584 
Q 2775 3584 3186 3129 
Q 3597 2675 3597 1894 
z
M 3022 2063 
Q 3016 2534 2758 2815 
Q 2500 3097 2075 3097 
Q 1594 3097 1305 2825 
Q 1016 2553 972 2059 
L 3022 2063 
z
" transform="scale(0.015625)"/>
       <path id="DejaVuSans-5d" d="M 1947 4863 
L 1947 -844 
L 622 -844 
L 622 -397 
L 1369 -397 
L 1369 4416 
L 622 4416 
L 622 4863 
L 1947 4863 
z
" transform="scale(0.015625)"/>
      </defs>
      <use xlink:href="#DejaVuSans-53"/>
      <use xlink:href="#DejaVuSans-31" x="63.476562"/>
      <use xlink:href="#DejaVuSans-4c" x="127.099609"/>
      <use xlink:href="#DejaVuSans-59" x="169.5625"/>
      <use xlink:href="#DejaVuSans-20" x="230.646484"/>
      <use xlink:href="#DejaVuSans-5b" x="262.433594"/>
      <use xlink:href="#DejaVuSans-70" x="301.447266"/>
      <use xlink:href="#DejaVuSans-2e" x="364.923828"/>
      <use xlink:href="#DejaVuSans-65" x="396.710938"/>
      <use xlink:href="#DejaVuSans-2e" x="458.234375"/>
      <use xlink:href="#DejaVuSans-5d" x="490.021484"/>
     </g>
    </g>
   </g>
   <g id="matplotlib.axis_2">
    <g id="ytick_1">
     <g id="line2d_23">
      <path d="M 55.01 297.88 
L 474.165 297.88 
" clip-path="url(#pdf1b3375e1)" style="fill: none; stroke: #b0b0b0; stroke-opacity: 0.5; stroke-width: 0.8; stroke-linecap: square"/>
     </g>
     <g id="line2d_24">
      <defs>
       <path id="m83d622b230" d="M 0 0 
L -3.5 0 
" style="stroke: #000000; stroke-width: 0.8"/>
      </defs>
      <g>
       <use xlink:href="#m83d622b230" x="55.01" y="297.88" style="stroke: #000000; stroke-width: 0.8"/>
      </g>
     </g>
     <g id="text_13">
      <!-- $\mathdefault{0}$ -->
      <g transform="translate(35.21 305.478437)scale(0.2 -0.2)">
       <use xlink:href="#DejaVuSans-30" transform="translate(0 0.78125)"/>
      </g>
     </g>
    </g>
    <g id="ytick_2">
     <g id="line2d_25">
      <path d="M 55.01 231.162 
L 474.165 231.162 
" clip-path="url(#pdf1b3375e1)" style="fill: none; stroke: #b0b0b0; stroke-opacity: 0.5; stroke-width: 0.8; stroke-linecap: square"/>
     </g>
     <g id="line2d_26">
      <g>
       <use xlink:href="#m83d622b230" x="55.01" y="231.162" style="stroke: #000000; stroke-width: 0.8"/>
      </g>
     </g>
     <g id="text_14">
      <!-- $\mathdefault{1}$ -->
      <g transform="translate(35.21 238.760438)scale(0.2 -0.2)">
       <use xlink:href="#DejaVuSans-31" transform="translate(0 0.09375)"/>
      </g>
     </g>
    </g>
    <g id="ytick_3">
     <g id="line2d_27">
      <path d="M 55.01 164.444 
L 474.165 164.444 
" clip-path="url(#pdf1b3375e1)" style="fill: none; stroke: #b0b0b0; stroke-opacity: 0.5; stroke-width: 0.8; stroke-linecap: square"/>
     </g>
     <g id="line2d_28">
      <g>
       <use xlink:href="#m83d622b230" x="55.01" y="164.444" style="stroke: #000000; stroke-width: 0.8"/>
      </g>
     </g>
     <g id="text_15">
      <!-- $\mathdefault{2}$ -->
      <g transform="translate(35.21 172.042438)scale(0.2 -0.2)">
       <use xlink:href="#DejaVuSans-32" transform="translate(0 0.78125)"/>
      </g>
     </g>
    </g>
    <g id="ytick_4">
     <g id="line2d_29">
      <path d="M 55.01 97.726 
L 474.165 97.726 
" clip-path="url(#pdf1b3375e1)" style="fill: none; stroke: #b0b0b0; stroke-opacity: 0.5; stroke-width: 0.8; stroke-linecap: square"/>
     </g>
     <g id="line2d_30">
      <g>
       <use xlink:href="#m83d622b230" x="55.01" y="97.726" style="stroke: #000000; stroke-width: 0.8"/>
      </g>
     </g>
     <g id="text_16">
      <!-- $\mathdefault{3}$ -->
      <g transform="translate(35.21 105.324437)scale(0.2 -0.2)">
       <use xlink:href="#DejaVuSans-33" transform="translate(0 0.78125)"/>
      </g>
     </g>
    </g>
    <g id="ytick_5">
     <g id="line2d_31">
      <path d="M 55.01 31.008 
L 474.165 31.008 
" clip-path="url(#pdf1b3375e1)" style="fill: none; stroke: #b0b0b0; stroke-opacity: 0.5; stroke-width: 0.8; stroke-linecap: square"/>
     </g>
     <g id="line2d_32">
      <g>
       <use xlink:href="#m83d622b230" x="55.01" y="31.008" style="stroke: #000000; stroke-width: 0.8"/>
      </g>
     </g>
     <g id="text_17">
      <!-- $\mathdefault{4}$ -->
      <g transform="translate(35.21 38.606438)scale(0.2 -0.2)">
       <use xlink:href="#DejaVuSans-34" transform="translate(0 0.09375)"/>
      </g>
     </g>
    </g>
    <g id="text_18">
     <!-- Counts -->
     <g transform="translate(27.050625 199.35025)rotate(-90)scale(0.2 -0.2)">
      <defs>
       <path id="DejaVuSans-43" d="M 4122 4306 
L 4122 3641 
Q 3803 3938 3442 4084 
Q 3081 4231 2675 4231 
Q 1875 4231 1450 3742 
Q 1025 3253 1025 2328 
Q 1025 1406 1450 917 
Q 1875 428 2675 428 
Q 3081 428 3442 575 
Q 3803 722 4122 1019 
L 4122 359 
Q 3791 134 3420 21 
Q 3050 -91 2638 -91 
Q 1578 -91 968 557 
Q 359 1206 359 2328 
Q 359 3453 968 4101 
Q 1578 4750 2638 4750 
Q 3056 4750 3426 4639 
Q 3797 4528 4122 4306 
z
" transform="scale(0.015625)"/>
       <path id="DejaVuSans-6f" d="M 1959 3097 
Q 1497 3097 1228 2736 
Q 959 2375 959 1747 
Q 959 1119 1226 758 
Q 1494 397 1959 397 
Q 2419 397 2687 759 
Q 2956 1122 2956 1747 
Q 2956 2369 2687 2733 
Q 2419 3097 1959 3097 
z
M 1959 3584 
Q 2709 3584 3137 3096 
Q 3566 2609 3566 1747 
Q 3566 888 3137 398 
Q 2709 -91 1959 -91 
Q 1206 -91 779 398 
Q 353 888 353 1747 
Q 353 2609 779 3096 
Q 1206 3584 1959 3584 
z
" transform="scale(0.015625)"/>
       <path id="DejaVuSans-75" d="M 544 1381 
L 544 3500 
L 1119 3500 
L 1119 1403 
Q 1119 906 1312 657 
Q 1506 409 1894 409 
Q 2359 409 2629 706 
Q 2900 1003 2900 1516 
L 2900 3500 
L 3475 3500 
L 3475 0 
L 2900 0 
L 2900 538 
Q 2691 219 2414 64 
Q 2138 -91 1772 -91 
Q 1169 -91 856 284 
Q 544 659 544 1381 
z
M 1991 3584 
L 1991 3584 
z
" transform="scale(0.015625)"/>
       <path id="DejaVuSans-6e" d="M 3513 2113 
L 3513 0 
L 2938 0 
L 2938 2094 
Q 2938 2591 2744 2837 
Q 2550 3084 2163 3084 
Q 1697 3084 1428 2787 
Q 1159 2491 1159 1978 
L 1159 0 
L 581 0 
L 581 3500 
L 1159 3500 
L 1159 2956 
Q 1366 3272 1645 3428 
Q 1925 3584 2291 3584 
Q 2894 3584 3203 3211 
Q 3513 2838 3513 2113 
z
" transform="scale(0.015625)"/>
       <path id="DejaVuSans-74" d="M 1172 4494 
L 1172 3500 
L 2356 3500 
L 2356 3053 
L 1172 3053 
L 1172 1153 
Q 1172 725 1289 603 
Q 1406 481 1766 481 
L 2356 481 
L 2356 0 
L 1766 0 
Q 1100 0 847 248 
Q 594 497 594 1153 
L 594 3053 
L 172 3053 
L 172 3500 
L 594 3500 
L 594 4494 
L 1172 4494 
z
" transform="scale(0.015625)"/>
       <path id="DejaVuSans-73" d="M 2834 3397 
L 2834 2853 
Q 2591 2978 2328 3040 
Q 2066 3103 1784 3103 
Q 1356 3103 1142 2972 
Q 928 2841 928 2578 
Q 928 2378 1081 2264 
Q 1234 2150 1697 2047 
L 1894 2003 
Q 2506 1872 2764 1633 
Q 3022 1394 3022 966 
Q 3022 478 2636 193 
Q 2250 -91 1575 -91 
Q 1294 -91 989 -36 
Q 684 19 347 128 
L 347 722 
Q 666 556 975 473 
Q 1284 391 1588 391 
Q 1994 391 2212 530 
Q 2431 669 2431 922 
Q 2431 1156 2273 1281 
Q 2116 1406 1581 1522 
L 1381 1569 
Q 847 1681 609 1914 
Q 372 2147 372 2553 
Q 372 3047 722 3315 
Q 1072 3584 1716 3584 
Q 2034 3584 2315 3537 
Q 2597 3491 2834 3397 
z
" transform="scale(0.015625)"/>
      </defs>
      <use xlink:href="#DejaVuSans-43"/>
      <use xlink:href="#DejaVuSans-6f" x="69.824219"/>
      <use xlink:href="#DejaVuSans-75" x="131.005859"/>
      <use xlink:href="#DejaVuSans-6e" x="194.384766"/>
      <use xlink:href="#DejaVuSans-74" x="257.763672"/>
      <use xlink:href="#DejaVuSans-73" x="296.972656"/>
     </g>
    </g>
    <g id="text_19">
     <!-- $\times\mathdefault{10^{4}}\mathdefault{}$ -->
     <g transform="translate(55.01 28.008)scale(0.2 -0.2)">
      <defs>
       <path id="DejaVuSans-d7" d="M 4488 3438 
L 3059 2003 
L 4488 575 
L 4116 197 
L 2681 1631 
L 1247 197 
L 878 575 
L 2303 2003 
L 878 3438 
L 1247 3816 
L 2681 2381 
L 4116 3816 
L 4488 3438 
z
" transform="scale(0.015625)"/>
      </defs>
      <use xlink:href="#DejaVuSans-d7" transform="translate(0 0.684375)"/>
      <use xlink:href="#DejaVuSans-31" transform="translate(83.789062 0.684375)"/>
      <use xlink:href="#DejaVuSans-30" transform="translate(147.412109 0.684375)"/>
      <use xlink:href="#DejaVuSans-34" transform="translate(211.992188 38.965625)scale(0.7)"/>
     </g>
    </g>
   </g>
   <g id="patch_3">
    <path d="M 55.01 297.88 
L 71.7762 297.866656 
L 71.7762 297.553082 
L 75.96775 297.553082 
L 75.96775 297.119415 
L 80.1593 297.119415 
L 80.1593 296.185363 
L 84.35085 296.185363 
L 84.35085 294.770941 
L 88.5424 294.770941 
L 88.5424 293.663422 
L 92.73395 293.663422 
L 92.73395 292.649309 
L 96.9255 292.649309 
L 96.9255 290.841251 
L 101.11705 290.841251 
L 101.11705 289.673686 
L 105.3086 289.673686 
L 105.3086 288.252593 
L 109.50015 288.252593 
L 109.50015 286.170991 
L 113.6917 286.170991 
L 113.6917 285.043457 
L 117.88325 285.043457 
L 117.88325 283.182025 
L 122.0748 283.182025 
L 122.0748 282.01446 
L 126.26635 282.01446 
L 126.26635 279.979561 
L 130.4579 279.979561 
L 130.4579 278.591826 
L 134.64945 278.591826 
L 134.64945 277.003938 
L 138.841 277.003938 
L 138.841 274.942352 
L 143.03255 274.942352 
L 143.03255 272.653924 
L 147.2241 272.653924 
L 147.2241 270.078609 
L 151.41565 270.078609 
L 151.41565 268.997778 
L 155.6072 268.997778 
L 155.6072 266.85613 
L 159.79875 266.85613 
L 159.79875 265.181508 
L 163.9903 265.181508 
L 163.9903 263.079891 
L 168.18185 263.079891 
L 168.18185 260.59131 
L 172.3734 260.59131 
L 172.3734 258.70319 
L 176.56495 258.70319 
L 176.56495 255.287229 
L 180.7565 255.287229 
L 180.7565 254.906936 
L 184.94805 254.906936 
L 184.94805 252.378324 
L 189.1396 252.378324 
L 189.1396 249.382686 
L 193.33115 249.382686 
L 193.33115 247.761438 
L 197.5227 247.761438 
L 197.5227 245.306216 
L 201.71425 245.306216 
L 201.71425 242.444014 
L 205.9058 242.444014 
L 205.9058 238.300826 
L 210.09735 238.300826 
L 210.09735 237.153276 
L 214.2889 237.153276 
L 214.2889 234.824818 
L 218.48045 234.824818 
L 218.48045 232.56975 
L 222.672 232.56975 
L 222.672 228.23308 
L 226.86355 228.23308 
L 226.86355 226.978781 
L 231.0551 226.978781 
L 231.0551 224.003159 
L 235.24665 224.003159 
L 235.24665 220.22692 
L 239.4382 220.22692 
L 239.4382 217.257969 
L 243.62975 217.257969 
L 243.62975 215.716783 
L 247.8213 215.716783 
L 247.8213 213.81532 
L 252.01285 213.81532 
L 252.01285 211.633641 
L 256.2044 211.633641 
L 256.2044 208.137618 
L 260.39595 208.137618 
L 260.39595 206.322889 
L 264.5875 206.322889 
L 264.5875 204.348036 
L 268.77905 204.348036 
L 268.77905 200.371643 
L 272.9706 200.371643 
L 272.9706 198.47018 
L 277.16215 198.47018 
L 277.16215 194.367023 
L 281.3537 194.367023 
L 281.3537 192.53895 
L 285.54525 192.53895 
L 285.54525 191.151215 
L 289.7368 191.151215 
L 289.7368 188.442465 
L 293.92835 188.442465 
L 293.92835 183.79222 
L 298.1199 183.79222 
L 298.1199 182.477875 
L 302.31145 182.477875 
L 302.31145 178.187908 
L 306.503 178.187908 
L 306.503 176.873563 
L 310.69455 176.873563 
L 310.69455 173.944643 
L 314.8861 173.944643 
L 314.8861 172.363427 
L 319.07765 172.363427 
L 319.07765 167.546387 
L 323.2692 167.546387 
L 323.2692 165.091165 
L 327.46075 165.091165 
L 327.46075 164.143769 
L 331.6523 164.143769 
L 331.6523 159.44015 
L 335.84385 159.44015 
L 335.84385 159.086545 
L 340.0354 159.086545 
L 340.0354 153.548951 
L 344.22695 153.548951 
L 344.22695 152.828396 
L 348.4185 152.828396 
L 348.4185 149.879461 
L 352.61005 149.879461 
L 352.61005 147.684438 
L 356.8016 147.684438 
L 356.8016 142.253593 
L 360.99315 142.253593 
L 360.99315 141.873301 
L 365.1847 141.873301 
L 365.1847 138.043687 
L 369.37625 138.043687 
L 369.37625 135.675198 
L 373.5678 135.675198 
L 373.5678 132.599499 
L 377.75935 132.599499 
L 377.75935 130.384461 
L 381.9509 130.384461 
L 381.9509 128.796573 
L 386.14245 128.796573 
L 386.14245 124.072938 
L 390.334 124.072938 
L 390.334 121.217408 
L 394.52555 121.217408 
L 394.52555 117.948226 
L 398.7171 117.948226 
L 398.7171 117.034189 
L 402.90865 117.034189 
L 402.90865 113.905115 
L 407.1002 113.905115 
L 407.1002 111.710093 
L 411.29175 111.710093 
L 411.29175 110.482482 
L 415.4833 110.482482 
L 415.4833 103.817353 
L 419.67485 103.817353 
L 419.67485 102.896645 
L 423.8664 102.896645 
L 423.8664 99.32056 
L 428.05795 99.32056 
L 428.05795 97.292333 
L 436.44105 97.258974 
L 436.44105 92.888945 
L 440.6326 92.888945 
L 440.6326 90.040086 
L 444.82415 90.040086 
L 444.82415 88.97927 
L 449.0157 88.97927 
L 449.0157 84.422431 
L 453.20725 84.422431 
L 453.20725 81.466823 
L 457.3988 81.466823 
L 457.3988 79.258458 
L 461.59035 79.258458 
L 461.59035 77.703928 
L 465.7819 77.703928 
L 465.7819 72.593329 
L 469.97345 72.593329 
L 469.97345 74.027766 
L 474.165 74.027766 
L 474.165 297.88 
L 474.165 297.88 
" clip-path="url(#pdf1b3375e1)" style="fill: none; stroke: #1f77b4; stroke-linejoin: miter"/>
   </g>
   <g id="patch_4">
    <path d="M 55.01 297.88 
L 75.96775 297.839969 
L 75.96775 297.653159 
L 80.1593 297.653159 
L 80.1593 297.379615 
L 84.35085 297.379615 
L 84.35085 296.799168 
L 88.5424 296.799168 
L 88.5424 296.238737 
L 92.73395 296.238737 
L 92.73395 295.424778 
L 96.9255 295.424778 
L 96.9255 294.844331 
L 101.11705 294.844331 
L 101.11705 293.496627 
L 105.3086 293.496627 
L 105.3086 292.28236 
L 109.50015 292.28236 
L 109.50015 291.274918 
L 113.6917 291.274918 
L 113.6917 289.580281 
L 117.88325 289.580281 
L 117.88325 287.878972 
L 122.0748 287.878972 
L 122.0748 285.79737 
L 126.26635 285.79737 
L 126.26635 283.955953 
L 130.4579 283.955953 
L 130.4579 281.927726 
L 134.64945 281.927726 
L 134.64945 278.498421 
L 138.841 278.498421 
L 138.841 276.203322 
L 143.03255 276.203322 
L 143.03255 273.681381 
L 147.2241 273.681381 
L 147.2241 271.086051 
L 151.41565 271.086051 
L 151.41565 268.19049 
L 155.6072 268.19049 
L 155.6072 263.920538 
L 159.79875 263.920538 
L 159.79875 260.684715 
L 163.9903 260.684715 
L 163.9903 257.882559 
L 168.18185 257.882559 
L 168.18185 253.432468 
L 172.3734 253.432468 
L 172.3734 249.949789 
L 176.56495 249.949789 
L 176.56495 246.013427 
L 180.7565 246.013427 
L 180.7565 242.323921 
L 184.94805 242.323921 
L 184.94805 238.994693 
L 189.1396 238.994693 
L 189.1396 235.418608 
L 193.33115 235.418608 
L 193.33115 231.615682 
L 197.5227 231.615682 
L 197.5227 228.199721 
L 201.71425 228.199721 
L 201.71425 223.089122 
L 205.9058 223.089122 
L 205.9058 219.239493 
L 210.09735 219.239493 
L 210.09735 217.451451 
L 214.2889 217.451451 
L 214.2889 212.387555 
L 218.48045 212.387555 
L 218.48045 210.059097 
L 222.672 210.059097 
L 222.672 206.429637 
L 226.86355 206.429637 
L 226.86355 204.481472 
L 231.0551 204.481472 
L 231.0551 198.39679 
L 235.24665 198.39679 
L 235.24665 194.567177 
L 239.4382 194.567177 
L 239.4382 191.745006 
L 243.62975 191.745006 
L 243.62975 187.528428 
L 247.8213 187.528428 
L 247.8213 185.046518 
L 252.01285 185.046518 
L 252.01285 183.004948 
L 256.2044 183.004948 
L 256.2044 179.989294 
L 260.39595 179.989294 
L 260.39595 178.027785 
L 264.5875 178.027785 
L 264.5875 174.498403 
L 268.77905 174.498403 
L 268.77905 172.103226 
L 272.9706 172.103226 
L 272.9706 171.049082 
L 277.16215 171.049082 
L 277.16215 167.406279 
L 281.3537 167.406279 
L 281.3537 165.458114 
L 285.54525 165.458114 
L 285.54525 161.888701 
L 289.7368 161.888701 
L 289.7368 159.693678 
L 293.92835 159.693678 
L 293.92835 157.818903 
L 298.1199 157.818903 
L 298.1199 156.711384 
L 302.31145 156.711384 
L 302.31145 154.4363 
L 306.503 154.4363 
L 306.503 151.280539 
L 310.69455 151.280539 
L 310.69455 152.388057 
L 314.8861 152.388057 
L 314.8861 147.697782 
L 319.07765 147.697782 
L 319.07765 146.843792 
L 323.2692 146.843792 
L 323.2692 147.731141 
L 327.46075 147.731141 
L 327.46075 143.341097 
L 331.6523 143.341097 
L 331.6523 142.633886 
L 335.84385 142.633886 
L 335.84385 143.514563 
L 340.0354 143.514563 
L 340.0354 138.564088 
L 344.22695 138.564088 
L 344.22695 138.297216 
L 348.4185 138.297216 
L 348.4185 135.061393 
L 352.61005 135.061393 
L 352.61005 135.588465 
L 356.8016 135.588465 
L 356.8016 133.633628 
L 360.99315 133.633628 
L 360.99315 132.252565 
L 365.1847 132.252565 
L 365.1847 132.065755 
L 369.37625 132.065755 
L 369.37625 132.49275 
L 373.5678 132.49275 
L 373.5678 129.450409 
L 377.75935 129.450409 
L 377.75935 126.15454 
L 381.9509 126.15454 
L 381.9509 128.41628 
L 386.14245 128.41628 
L 386.14245 125.00699 
L 390.334 125.00699 
L 390.334 125.447329 
L 394.52555 125.447329 
L 394.52555 124.519949 
L 398.7171 124.519949 
L 398.7171 122.284896 
L 407.1002 122.191491 
L 407.1002 120.917177 
L 411.29175 120.917177 
L 411.29175 119.883048 
L 415.4833 119.883048 
L 415.4833 119.342632 
L 423.8664 119.255899 
L 423.8664 118.542016 
L 428.05795 118.542016 
L 428.05795 117.641323 
L 436.44105 117.708041 
L 436.44105 114.445531 
L 440.6326 114.445531 
L 440.6326 117.100907 
L 444.82415 117.100907 
L 444.82415 116.040091 
L 449.0157 116.040091 
L 449.0157 114.932572 
L 453.20725 114.932572 
L 453.20725 110.349046 
L 457.3988 110.349046 
L 457.3988 110.58923 
L 461.59035 110.58923 
L 461.59035 111.243067 
L 465.7819 111.243067 
L 465.7819 109.021357 
L 469.97345 109.021357 
L 469.97345 110.055486 
L 474.165 110.055486 
L 474.165 297.88 
L 474.165 297.88 
" clip-path="url(#pdf1b3375e1)" style="fill: none; stroke: #ff7f0e; stroke-linejoin: miter"/>
   </g>
   <g id="line2d_33">
    <path d="M 96.9255 297.88 
L 96.9255 31.008 
" clip-path="url(#pdf1b3375e1)" style="fill: none; stroke-dasharray: 5.55,2.4; stroke-dashoffset: 0; stroke: #ff0000; stroke-width: 1.5"/>
   </g>
   <g id="line2d_34">
    <path d="M 138.841 297.88 
L 138.841 31.008 
" clip-path="url(#pdf1b3375e1)" style="fill: none; stroke-dasharray: 5.55,2.4; stroke-dashoffset: 0; stroke: #ff0000; stroke-width: 1.5"/>
   </g>
   <g id="line2d_35">
    <path d="M 180.7565 297.88 
L 180.7565 31.008 
" clip-path="url(#pdf1b3375e1)" style="fill: none; stroke-dasharray: 5.55,2.4; stroke-dashoffset: 0; stroke: #ff0000; stroke-width: 1.5"/>
   </g>
   <g id="line2d_36">
    <path d="M 222.672 297.88 
L 222.672 31.008 
" clip-path="url(#pdf1b3375e1)" style="fill: none; stroke-dasharray: 5.55,2.4; stroke-dashoffset: 0; stroke: #ff0000; stroke-width: 1.5"/>
   </g>
   <g id="line2d_37">
    <path d="M 264.5875 297.88 
L 264.5875 31.008 
" clip-path="url(#pdf1b3375e1)" style="fill: none; stroke-dasharray: 5.55,2.4; stroke-dashoffset: 0; stroke: #ff0000; stroke-width: 1.5"/>
   </g>
   <g id="line2d_38">
    <path d="M 306.503 297.88 
L 306.503 31.008 
" clip-path="url(#pdf1b3375e1)" style="fill: none; stroke-dasharray: 5.55,2.4; stroke-dashoffset: 0; stroke: #ff0000; stroke-width: 1.5"/>
   </g>
   <g id="line2d_39">
    <path d="M 348.4185 297.88 
L 348.4185 31.008 
" clip-path="url(#pdf1b3375e1)" style="fill: none; stroke-dasharray: 5.55,2.4; stroke-dashoffset: 0; stroke: #ff0000; stroke-width: 1.5"/>
   </g>
   <g id="line2d_40">
    <path d="M 390.334 297.88 
L 390.334 31.008 
" clip-path="url(#pdf1b3375e1)" style="fill: none; stroke-dasharray: 5.55,2.4; stroke-dashoffset: 0; stroke: #ff0000; stroke-width: 1.5"/>
   </g>
   <g id="line2d_41">
    <path d="M 432.2495 297.88 
L 432.2495 31.008 
" clip-path="url(#pdf1b3375e1)" style="fill: none; stroke-dasharray: 5.55,2.4; stroke-dashoffset: 0; stroke: #ff0000; stroke-width: 1.5"/>
   </g>
   <g id="patch_5">
    <path d="M 55.01 297.88 
L 55.01 31.008 
" style="fill: none; stroke: #000000; stroke-width: 0.8; stroke-linejoin: miter; stroke-linecap: square"/>
   </g>
   <g id="patch_6">
    <path d="M 474.165 297.88 
L 474.165 31.008 
" style="fill: none; stroke: #000000; stroke-width: 0.8; stroke-linejoin: miter; stroke-linecap: square"/>
   </g>
   <g id="patch_7">
    <path d="M 55.01 297.88 
L 474.165 297.88 
" style="fill: none; stroke: #000000; stroke-width: 0.8; stroke-linejoin: miter; stroke-linecap: square"/>
   </g>
   <g id="patch_8">
    <path d="M 55.01 31.008 
L 474.165 31.008 
" style="fill: none; stroke: #000000; stroke-width: 0.8; stroke-linejoin: miter; stroke-linecap: square"/>
   </g>
   <g id="legend_1">
    <g id="patch_9">
     <path d="M 67.61 98.24925 
L 377.668437 98.24925 
Q 381.268438 98.24925 381.268438 94.64925 
L 381.268438 43.608 
Q 381.268438 40.008 377.668437 40.008 
L 67.61 40.008 
Q 64.01 40.008 64.01 43.608 
L 64.01 94.64925 
Q 64.01 98.24925 67.61 98.24925 
z
" style="fill: #ffffff; opacity: 0.5; stroke: #cccccc; stroke-linejoin: miter"/>
    </g>
    <g id="patch_10">
     <path d="M 71.21 60.885188 
L 107.21 60.885188 
L 107.21 48.285188 
L 71.21 48.285188 
L 71.21 60.885188 
z
" style="fill: none; stroke: #1f77b4; stroke-linejoin: miter"/>
    </g>
    <g id="text_20">
     <!-- DP1, mean 70.65, std 21.14 -->
     <g transform="translate(121.61 60.885188)scale(0.18 -0.18)">
      <defs>
       <path id="DejaVuSans-44" d="M 1259 4147 
L 1259 519 
L 2022 519 
Q 2988 519 3436 956 
Q 3884 1394 3884 2338 
Q 3884 3275 3436 3711 
Q 2988 4147 2022 4147 
L 1259 4147 
z
M 628 4666 
L 1925 4666 
Q 3281 4666 3915 4102 
Q 4550 3538 4550 2338 
Q 4550 1131 3912 565 
Q 3275 0 1925 0 
L 628 0 
L 628 4666 
z
" transform="scale(0.015625)"/>
       <path id="DejaVuSans-50" d="M 1259 4147 
L 1259 2394 
L 2053 2394 
Q 2494 2394 2734 2622 
Q 2975 2850 2975 3272 
Q 2975 3691 2734 3919 
Q 2494 4147 2053 4147 
L 1259 4147 
z
M 628 4666 
L 2053 4666 
Q 2838 4666 3239 4311 
Q 3641 3956 3641 3272 
Q 3641 2581 3239 2228 
Q 2838 1875 2053 1875 
L 1259 1875 
L 1259 0 
L 628 0 
L 628 4666 
z
" transform="scale(0.015625)"/>
       <path id="DejaVuSans-2c" d="M 750 794 
L 1409 794 
L 1409 256 
L 897 -744 
L 494 -744 
L 750 256 
L 750 794 
z
" transform="scale(0.015625)"/>
       <path id="DejaVuSans-6d" d="M 3328 2828 
Q 3544 3216 3844 3400 
Q 4144 3584 4550 3584 
Q 5097 3584 5394 3201 
Q 5691 2819 5691 2113 
L 5691 0 
L 5113 0 
L 5113 2094 
Q 5113 2597 4934 2840 
Q 4756 3084 4391 3084 
Q 3944 3084 3684 2787 
Q 3425 2491 3425 1978 
L 3425 0 
L 2847 0 
L 2847 2094 
Q 2847 2600 2669 2842 
Q 2491 3084 2119 3084 
Q 1678 3084 1418 2786 
Q 1159 2488 1159 1978 
L 1159 0 
L 581 0 
L 581 3500 
L 1159 3500 
L 1159 2956 
Q 1356 3278 1631 3431 
Q 1906 3584 2284 3584 
Q 2666 3584 2933 3390 
Q 3200 3197 3328 2828 
z
" transform="scale(0.015625)"/>
       <path id="DejaVuSans-61" d="M 2194 1759 
Q 1497 1759 1228 1600 
Q 959 1441 959 1056 
Q 959 750 1161 570 
Q 1363 391 1709 391 
Q 2188 391 2477 730 
Q 2766 1069 2766 1631 
L 2766 1759 
L 2194 1759 
z
M 3341 1997 
L 3341 0 
L 2766 0 
L 2766 531 
Q 2569 213 2275 61 
Q 1981 -91 1556 -91 
Q 1019 -91 701 211 
Q 384 513 384 1019 
Q 384 1609 779 1909 
Q 1175 2209 1959 2209 
L 2766 2209 
L 2766 2266 
Q 2766 2663 2505 2880 
Q 2244 3097 1772 3097 
Q 1472 3097 1187 3025 
Q 903 2953 641 2809 
L 641 3341 
Q 956 3463 1253 3523 
Q 1550 3584 1831 3584 
Q 2591 3584 2966 3190 
Q 3341 2797 3341 1997 
z
" transform="scale(0.015625)"/>
       <path id="DejaVuSans-64" d="M 2906 2969 
L 2906 4863 
L 3481 4863 
L 3481 0 
L 2906 0 
L 2906 525 
Q 2725 213 2448 61 
Q 2172 -91 1784 -91 
Q 1150 -91 751 415 
Q 353 922 353 1747 
Q 353 2572 751 3078 
Q 1150 3584 1784 3584 
Q 2172 3584 2448 3432 
Q 2725 3281 2906 2969 
z
M 947 1747 
Q 947 1113 1208 752 
Q 1469 391 1925 391 
Q 2381 391 2643 752 
Q 2906 1113 2906 1747 
Q 2906 2381 2643 2742 
Q 2381 3103 1925 3103 
Q 1469 3103 1208 2742 
Q 947 2381 947 1747 
z
" transform="scale(0.015625)"/>
      </defs>
      <use xlink:href="#DejaVuSans-44"/>
      <use xlink:href="#DejaVuSans-50" x="77.001953"/>
      <use xlink:href="#DejaVuSans-31" x="137.304688"/>
      <use xlink:href="#DejaVuSans-2c" x="200.927734"/>
      <use xlink:href="#DejaVuSans-20" x="232.714844"/>
      <use xlink:href="#DejaVuSans-6d" x="264.501953"/>
      <use xlink:href="#DejaVuSans-65" x="361.914062"/>
      <use xlink:href="#DejaVuSans-61" x="423.4375"/>
      <use xlink:href="#DejaVuSans-6e" x="484.716797"/>
      <use xlink:href="#DejaVuSans-20" x="548.095703"/>
      <use xlink:href="#DejaVuSans-37" x="579.882812"/>
      <use xlink:href="#DejaVuSans-30" x="643.505859"/>
      <use xlink:href="#DejaVuSans-2e" x="707.128906"/>
      <use xlink:href="#DejaVuSans-36" x="738.916016"/>
      <use xlink:href="#DejaVuSans-35" x="802.539062"/>
      <use xlink:href="#DejaVuSans-2c" x="866.162109"/>
      <use xlink:href="#DejaVuSans-20" x="897.949219"/>
      <use xlink:href="#DejaVuSans-73" x="929.736328"/>
      <use xlink:href="#DejaVuSans-74" x="981.835938"/>
      <use xlink:href="#DejaVuSans-64" x="1021.044922"/>
      <use xlink:href="#DejaVuSans-20" x="1084.521484"/>
      <use xlink:href="#DejaVuSans-32" x="1116.308594"/>
      <use xlink:href="#DejaVuSans-31" x="1179.931641"/>
      <use xlink:href="#DejaVuSans-2e" x="1243.554688"/>
      <use xlink:href="#DejaVuSans-31" x="1275.341797"/>
      <use xlink:href="#DejaVuSans-34" x="1338.964844"/>
     </g>
    </g>
    <g id="patch_11">
     <path d="M 71.21 87.305813 
L 107.21 87.305813 
L 107.21 74.705813 
L 71.21 74.705813 
L 71.21 87.305813 
z
" style="fill: none; stroke: #ff7f0e; stroke-linejoin: miter"/>
    </g>
    <g id="text_21">
     <!-- DP2, mean 68.15, std 20.81 -->
     <g transform="translate(121.61 87.305813)scale(0.18 -0.18)">
      <use xlink:href="#DejaVuSans-44"/>
      <use xlink:href="#DejaVuSans-50" x="77.001953"/>
      <use xlink:href="#DejaVuSans-32" x="137.304688"/>
      <use xlink:href="#DejaVuSans-2c" x="200.927734"/>
      <use xlink:href="#DejaVuSans-20" x="232.714844"/>
      <use xlink:href="#DejaVuSans-6d" x="264.501953"/>
      <use xlink:href="#DejaVuSans-65" x="361.914062"/>
      <use xlink:href="#DejaVuSans-61" x="423.4375"/>
      <use xlink:href="#DejaVuSans-6e" x="484.716797"/>
      <use xlink:href="#DejaVuSans-20" x="548.095703"/>
      <use xlink:href="#DejaVuSans-36" x="579.882812"/>
      <use xlink:href="#DejaVuSans-38" x="643.505859"/>
      <use xlink:href="#DejaVuSans-2e" x="707.128906"/>
      <use xlink:href="#DejaVuSans-31" x="738.916016"/>
      <use xlink:href="#DejaVuSans-35" x="802.539062"/>
      <use xlink:href="#DejaVuSans-2c" x="866.162109"/>
      <use xlink:href="#DejaVuSans-20" x="897.949219"/>
      <use xlink:href="#DejaVuSans-73" x="929.736328"/>
      <use xlink:href="#DejaVuSans-74" x="981.835938"/>
      <use xlink:href="#DejaVuSans-64" x="1021.044922"/>
      <use xlink:href="#DejaVuSans-20" x="1084.521484"/>
      <use xlink:href="#DejaVuSans-32" x="1116.308594"/>
      <use xlink:href="#DejaVuSans-30" x="1179.931641"/>
      <use xlink:href="#DejaVuSans-2e" x="1243.554688"/>
      <use xlink:href="#DejaVuSans-38" x="1275.341797"/>
      <use xlink:href="#DejaVuSans-31" x="1338.964844"/>
     </g>
    </g>
   </g>
  </g>
 </g>
 <defs>
  <clipPath id="pdf1b3375e1">
   <rect x="55.01" y="31.008" width="419.155" height="266.872"/>
  </clipPath>
 </defs>
</svg>
