<?xml version="1.0" encoding="utf-8" standalone="no"?>
<!DOCTYPE svg PUBLIC "-//W3C//DTD SVG 1.1//EN"
  "http://www.w3.org/Graphics/SVG/1.1/DTD/svg11.dtd">
<svg xmlns:xlink="http://www.w3.org/1999/xlink" width="576pt" height="360pt" viewBox="0 0 576 360" xmlns="http://www.w3.org/2000/svg" version="1.1">
 <metadata>
  <rdf:RDF xmlns:dc="http://purl.org/dc/elements/1.1/" xmlns:cc="http://creativecommons.org/ns#" xmlns:rdf="http://www.w3.org/1999/02/22-rdf-syntax-ns#">
   <cc:Work>
    <dc:type rdf:resource="http://purl.org/dc/dcmitype/StillImage"/>
    <dc:date>2022-08-31T14:35:02.461166</dc:date>
    <dc:format>image/svg+xml</dc:format>
    <dc:creator>
     <cc:Agent>
      <dc:title>Matplotlib v3.5.1, https://matplotlib.org/</dc:title>
     </cc:Agent>
    </dc:creator>
   </cc:Work>
  </rdf:RDF>
 </metadata>
 <defs>
  <style type="text/css">*{stroke-linejoin: round; stroke-linecap: butt}</style>
 </defs>
 <g id="figure_1">
  <g id="patch_1">
   <path d="M 0 360 
L 576 360 
L 576 0 
L 0 0 
z
" style="fill: #ffffff"/>
  </g>
  <g id="axes_1">
   <g id="patch_2">
    <path d="M 73.91 305.08 
L 549.945 305.08 
L 549.945 17.28 
L 73.91 17.28 
z
" style="fill: #ffffff"/>
   </g>
   <g id="PatchCollection_1">
    <path d="M 73.91 304.984344 
L 121.5135 304.984344 
L 121.5135 304.952143 
L 73.91 304.952143 
z
" clip-path="url(#p4a742105da)" style="fill: #0000ff; fill-opacity: 0.2"/>
    <path d="M 121.5135 295.134127 
L 169.117 295.134127 
L 169.117 293.117923 
L 121.5135 293.117923 
z
" clip-path="url(#p4a742105da)" style="fill: #0000ff; fill-opacity: 0.2"/>
    <path d="M 169.117 243.257691 
L 216.7205 243.257691 
L 216.7205 234.927595 
L 169.117 234.927595 
z
" clip-path="url(#p4a742105da)" style="fill: #0000ff; fill-opacity: 0.2"/>
    <path d="M 216.7205 190.565539 
L 264.324 190.565539 
L 264.324 169.826442 
L 216.7205 169.826442 
z
" clip-path="url(#p4a742105da)" style="fill: #0000ff; fill-opacity: 0.2"/>
    <path d="M 264.324 189.119769 
L 311.9275 189.119769 
L 311.9275 166.372447 
L 264.324 166.372447 
z
" clip-path="url(#p4a742105da)" style="fill: #0000ff; fill-opacity: 0.2"/>
    <path d="M 311.9275 137.26548 
L 359.531 137.26548 
L 359.531 88.528018 
L 311.9275 88.528018 
z
" clip-path="url(#p4a742105da)" style="fill: #0000ff; fill-opacity: 0.2"/>
    <path d="M 359.531 122.033913 
L 407.1345 122.033913 
L 407.1345 77.847451 
L 359.531 77.847451 
z
" clip-path="url(#p4a742105da)" style="fill: #0000ff; fill-opacity: 0.2"/>
    <path d="M 407.1345 165.798839 
L 454.738 165.798839 
L 454.738 137.21128 
L 407.1345 137.21128 
z
" clip-path="url(#p4a742105da)" style="fill: #0000ff; fill-opacity: 0.2"/>
    <path d="M 454.738 150.563604 
L 502.3415 150.563604 
L 502.3415 93.392162 
L 454.738 93.392162 
z
" clip-path="url(#p4a742105da)" style="fill: #0000ff; fill-opacity: 0.2"/>
    <path d="M 502.3415 68.672806 
L 549.945 68.672806 
L 549.945 21.16246 
L 502.3415 21.16246 
z
" clip-path="url(#p4a742105da)" style="fill: #0000ff; fill-opacity: 0.2"/>
   </g>
   <g id="matplotlib.axis_1">
    <g id="xtick_1">
     <g id="line2d_1">
      <path d="M 73.91 305.08 
L 73.91 17.28 
" clip-path="url(#p4a742105da)" style="fill: none; stroke: #b0b0b0; stroke-width: 0.8; stroke-linecap: square"/>
     </g>
     <g id="line2d_2">
      <defs>
       <path id="m49b8b10579" d="M 0 0 
L 0 3.5 
" style="stroke: #000000; stroke-width: 0.8"/>
      </defs>
      <g>
       <use xlink:href="#m49b8b10579" x="73.91" y="305.08" style="stroke: #000000; stroke-width: 0.8"/>
      </g>
     </g>
     <g id="text_1">
      <!-- 0 -->
      <g transform="translate(68.82 324.2375)scale(0.16 -0.16)">
       <defs>
        <path id="DejaVuSans-30" d="M 2034 4250 
Q 1547 4250 1301 3770 
Q 1056 3291 1056 2328 
Q 1056 1369 1301 889 
Q 1547 409 2034 409 
Q 2525 409 2770 889 
Q 3016 1369 3016 2328 
Q 3016 3291 2770 3770 
Q 2525 4250 2034 4250 
z
M 2034 4750 
Q 2819 4750 3233 4129 
Q 3647 3509 3647 2328 
Q 3647 1150 3233 529 
Q 2819 -91 2034 -91 
Q 1250 -91 836 529 
Q 422 1150 422 2328 
Q 422 3509 836 4129 
Q 1250 4750 2034 4750 
z
" transform="scale(0.015625)"/>
       </defs>
       <use xlink:href="#DejaVuSans-30"/>
      </g>
     </g>
    </g>
    <g id="xtick_2">
     <g id="line2d_3">
      <path d="M 121.5135 305.08 
L 121.5135 17.28 
" clip-path="url(#p4a742105da)" style="fill: none; stroke: #b0b0b0; stroke-width: 0.8; stroke-linecap: square"/>
     </g>
     <g id="line2d_4">
      <g>
       <use xlink:href="#m49b8b10579" x="121.5135" y="305.08" style="stroke: #000000; stroke-width: 0.8"/>
      </g>
     </g>
     <g id="text_2">
      <!-- 10 -->
      <g transform="translate(111.3335 324.2375)scale(0.16 -0.16)">
       <defs>
        <path id="DejaVuSans-31" d="M 794 531 
L 1825 531 
L 1825 4091 
L 703 3866 
L 703 4441 
L 1819 4666 
L 2450 4666 
L 2450 531 
L 3481 531 
L 3481 0 
L 794 0 
L 794 531 
z
" transform="scale(0.015625)"/>
       </defs>
       <use xlink:href="#DejaVuSans-31"/>
       <use xlink:href="#DejaVuSans-30" x="63.623047"/>
      </g>
     </g>
    </g>
    <g id="xtick_3">
     <g id="line2d_5">
      <path d="M 169.117 305.08 
L 169.117 17.28 
" clip-path="url(#p4a742105da)" style="fill: none; stroke: #b0b0b0; stroke-width: 0.8; stroke-linecap: square"/>
     </g>
     <g id="line2d_6">
      <g>
       <use xlink:href="#m49b8b10579" x="169.117" y="305.08" style="stroke: #000000; stroke-width: 0.8"/>
      </g>
     </g>
     <g id="text_3">
      <!-- 20 -->
      <g transform="translate(158.937 324.2375)scale(0.16 -0.16)">
       <defs>
        <path id="DejaVuSans-32" d="M 1228 531 
L 3431 531 
L 3431 0 
L 469 0 
L 469 531 
Q 828 903 1448 1529 
Q 2069 2156 2228 2338 
Q 2531 2678 2651 2914 
Q 2772 3150 2772 3378 
Q 2772 3750 2511 3984 
Q 2250 4219 1831 4219 
Q 1534 4219 1204 4116 
Q 875 4013 500 3803 
L 500 4441 
Q 881 4594 1212 4672 
Q 1544 4750 1819 4750 
Q 2544 4750 2975 4387 
Q 3406 4025 3406 3419 
Q 3406 3131 3298 2873 
Q 3191 2616 2906 2266 
Q 2828 2175 2409 1742 
Q 1991 1309 1228 531 
z
" transform="scale(0.015625)"/>
       </defs>
       <use xlink:href="#DejaVuSans-32"/>
       <use xlink:href="#DejaVuSans-30" x="63.623047"/>
      </g>
     </g>
    </g>
    <g id="xtick_4">
     <g id="line2d_7">
      <path d="M 216.7205 305.08 
L 216.7205 17.28 
" clip-path="url(#p4a742105da)" style="fill: none; stroke: #b0b0b0; stroke-width: 0.8; stroke-linecap: square"/>
     </g>
     <g id="line2d_8">
      <g>
       <use xlink:href="#m49b8b10579" x="216.7205" y="305.08" style="stroke: #000000; stroke-width: 0.8"/>
      </g>
     </g>
     <g id="text_4">
      <!-- 30 -->
      <g transform="translate(206.5405 324.2375)scale(0.16 -0.16)">
       <defs>
        <path id="DejaVuSans-33" d="M 2597 2516 
Q 3050 2419 3304 2112 
Q 3559 1806 3559 1356 
Q 3559 666 3084 287 
Q 2609 -91 1734 -91 
Q 1441 -91 1130 -33 
Q 819 25 488 141 
L 488 750 
Q 750 597 1062 519 
Q 1375 441 1716 441 
Q 2309 441 2620 675 
Q 2931 909 2931 1356 
Q 2931 1769 2642 2001 
Q 2353 2234 1838 2234 
L 1294 2234 
L 1294 2753 
L 1863 2753 
Q 2328 2753 2575 2939 
Q 2822 3125 2822 3475 
Q 2822 3834 2567 4026 
Q 2313 4219 1838 4219 
Q 1578 4219 1281 4162 
Q 984 4106 628 3988 
L 628 4550 
Q 988 4650 1302 4700 
Q 1616 4750 1894 4750 
Q 2613 4750 3031 4423 
Q 3450 4097 3450 3541 
Q 3450 3153 3228 2886 
Q 3006 2619 2597 2516 
z
" transform="scale(0.015625)"/>
       </defs>
       <use xlink:href="#DejaVuSans-33"/>
       <use xlink:href="#DejaVuSans-30" x="63.623047"/>
      </g>
     </g>
    </g>
    <g id="xtick_5">
     <g id="line2d_9">
      <path d="M 264.324 305.08 
L 264.324 17.28 
" clip-path="url(#p4a742105da)" style="fill: none; stroke: #b0b0b0; stroke-width: 0.8; stroke-linecap: square"/>
     </g>
     <g id="line2d_10">
      <g>
       <use xlink:href="#m49b8b10579" x="264.324" y="305.08" style="stroke: #000000; stroke-width: 0.8"/>
      </g>
     </g>
     <g id="text_5">
      <!-- 40 -->
      <g transform="translate(254.144 324.2375)scale(0.16 -0.16)">
       <defs>
        <path id="DejaVuSans-34" d="M 2419 4116 
L 825 1625 
L 2419 1625 
L 2419 4116 
z
M 2253 4666 
L 3047 4666 
L 3047 1625 
L 3713 1625 
L 3713 1100 
L 3047 1100 
L 3047 0 
L 2419 0 
L 2419 1100 
L 313 1100 
L 313 1709 
L 2253 4666 
z
" transform="scale(0.015625)"/>
       </defs>
       <use xlink:href="#DejaVuSans-34"/>
       <use xlink:href="#DejaVuSans-30" x="63.623047"/>
      </g>
     </g>
    </g>
    <g id="xtick_6">
     <g id="line2d_11">
      <path d="M 311.9275 305.08 
L 311.9275 17.28 
" clip-path="url(#p4a742105da)" style="fill: none; stroke: #b0b0b0; stroke-width: 0.8; stroke-linecap: square"/>
     </g>
     <g id="line2d_12">
      <g>
       <use xlink:href="#m49b8b10579" x="311.9275" y="305.08" style="stroke: #000000; stroke-width: 0.8"/>
      </g>
     </g>
     <g id="text_6">
      <!-- 50 -->
      <g transform="translate(301.7475 324.2375)scale(0.16 -0.16)">
       <defs>
        <path id="DejaVuSans-35" d="M 691 4666 
L 3169 4666 
L 3169 4134 
L 1269 4134 
L 1269 2991 
Q 1406 3038 1543 3061 
Q 1681 3084 1819 3084 
Q 2600 3084 3056 2656 
Q 3513 2228 3513 1497 
Q 3513 744 3044 326 
Q 2575 -91 1722 -91 
Q 1428 -91 1123 -41 
Q 819 9 494 109 
L 494 744 
Q 775 591 1075 516 
Q 1375 441 1709 441 
Q 2250 441 2565 725 
Q 2881 1009 2881 1497 
Q 2881 1984 2565 2268 
Q 2250 2553 1709 2553 
Q 1456 2553 1204 2497 
Q 953 2441 691 2322 
L 691 4666 
z
" transform="scale(0.015625)"/>
       </defs>
       <use xlink:href="#DejaVuSans-35"/>
       <use xlink:href="#DejaVuSans-30" x="63.623047"/>
      </g>
     </g>
    </g>
    <g id="xtick_7">
     <g id="line2d_13">
      <path d="M 359.531 305.08 
L 359.531 17.28 
" clip-path="url(#p4a742105da)" style="fill: none; stroke: #b0b0b0; stroke-width: 0.8; stroke-linecap: square"/>
     </g>
     <g id="line2d_14">
      <g>
       <use xlink:href="#m49b8b10579" x="359.531" y="305.08" style="stroke: #000000; stroke-width: 0.8"/>
      </g>
     </g>
     <g id="text_7">
      <!-- 60 -->
      <g transform="translate(349.351 324.2375)scale(0.16 -0.16)">
       <defs>
        <path id="DejaVuSans-36" d="M 2113 2584 
Q 1688 2584 1439 2293 
Q 1191 2003 1191 1497 
Q 1191 994 1439 701 
Q 1688 409 2113 409 
Q 2538 409 2786 701 
Q 3034 994 3034 1497 
Q 3034 2003 2786 2293 
Q 2538 2584 2113 2584 
z
M 3366 4563 
L 3366 3988 
Q 3128 4100 2886 4159 
Q 2644 4219 2406 4219 
Q 1781 4219 1451 3797 
Q 1122 3375 1075 2522 
Q 1259 2794 1537 2939 
Q 1816 3084 2150 3084 
Q 2853 3084 3261 2657 
Q 3669 2231 3669 1497 
Q 3669 778 3244 343 
Q 2819 -91 2113 -91 
Q 1303 -91 875 529 
Q 447 1150 447 2328 
Q 447 3434 972 4092 
Q 1497 4750 2381 4750 
Q 2619 4750 2861 4703 
Q 3103 4656 3366 4563 
z
" transform="scale(0.015625)"/>
       </defs>
       <use xlink:href="#DejaVuSans-36"/>
       <use xlink:href="#DejaVuSans-30" x="63.623047"/>
      </g>
     </g>
    </g>
    <g id="xtick_8">
     <g id="line2d_15">
      <path d="M 407.1345 305.08 
L 407.1345 17.28 
" clip-path="url(#p4a742105da)" style="fill: none; stroke: #b0b0b0; stroke-width: 0.8; stroke-linecap: square"/>
     </g>
     <g id="line2d_16">
      <g>
       <use xlink:href="#m49b8b10579" x="407.1345" y="305.08" style="stroke: #000000; stroke-width: 0.8"/>
      </g>
     </g>
     <g id="text_8">
      <!-- 70 -->
      <g transform="translate(396.9545 324.2375)scale(0.16 -0.16)">
       <defs>
        <path id="DejaVuSans-37" d="M 525 4666 
L 3525 4666 
L 3525 4397 
L 1831 0 
L 1172 0 
L 2766 4134 
L 525 4134 
L 525 4666 
z
" transform="scale(0.015625)"/>
       </defs>
       <use xlink:href="#DejaVuSans-37"/>
       <use xlink:href="#DejaVuSans-30" x="63.623047"/>
      </g>
     </g>
    </g>
    <g id="xtick_9">
     <g id="line2d_17">
      <path d="M 454.738 305.08 
L 454.738 17.28 
" clip-path="url(#p4a742105da)" style="fill: none; stroke: #b0b0b0; stroke-width: 0.8; stroke-linecap: square"/>
     </g>
     <g id="line2d_18">
      <g>
       <use xlink:href="#m49b8b10579" x="454.738" y="305.08" style="stroke: #000000; stroke-width: 0.8"/>
      </g>
     </g>
     <g id="text_9">
      <!-- 80 -->
      <g transform="translate(444.558 324.2375)scale(0.16 -0.16)">
       <defs>
        <path id="DejaVuSans-38" d="M 2034 2216 
Q 1584 2216 1326 1975 
Q 1069 1734 1069 1313 
Q 1069 891 1326 650 
Q 1584 409 2034 409 
Q 2484 409 2743 651 
Q 3003 894 3003 1313 
Q 3003 1734 2745 1975 
Q 2488 2216 2034 2216 
z
M 1403 2484 
Q 997 2584 770 2862 
Q 544 3141 544 3541 
Q 544 4100 942 4425 
Q 1341 4750 2034 4750 
Q 2731 4750 3128 4425 
Q 3525 4100 3525 3541 
Q 3525 3141 3298 2862 
Q 3072 2584 2669 2484 
Q 3125 2378 3379 2068 
Q 3634 1759 3634 1313 
Q 3634 634 3220 271 
Q 2806 -91 2034 -91 
Q 1263 -91 848 271 
Q 434 634 434 1313 
Q 434 1759 690 2068 
Q 947 2378 1403 2484 
z
M 1172 3481 
Q 1172 3119 1398 2916 
Q 1625 2713 2034 2713 
Q 2441 2713 2670 2916 
Q 2900 3119 2900 3481 
Q 2900 3844 2670 4047 
Q 2441 4250 2034 4250 
Q 1625 4250 1398 4047 
Q 1172 3844 1172 3481 
z
" transform="scale(0.015625)"/>
       </defs>
       <use xlink:href="#DejaVuSans-38"/>
       <use xlink:href="#DejaVuSans-30" x="63.623047"/>
      </g>
     </g>
    </g>
    <g id="xtick_10">
     <g id="line2d_19">
      <path d="M 502.3415 305.08 
L 502.3415 17.28 
" clip-path="url(#p4a742105da)" style="fill: none; stroke: #b0b0b0; stroke-width: 0.8; stroke-linecap: square"/>
     </g>
     <g id="line2d_20">
      <g>
       <use xlink:href="#m49b8b10579" x="502.3415" y="305.08" style="stroke: #000000; stroke-width: 0.8"/>
      </g>
     </g>
     <g id="text_10">
      <!-- 90 -->
      <g transform="translate(492.1615 324.2375)scale(0.16 -0.16)">
       <defs>
        <path id="DejaVuSans-39" d="M 703 97 
L 703 672 
Q 941 559 1184 500 
Q 1428 441 1663 441 
Q 2288 441 2617 861 
Q 2947 1281 2994 2138 
Q 2813 1869 2534 1725 
Q 2256 1581 1919 1581 
Q 1219 1581 811 2004 
Q 403 2428 403 3163 
Q 403 3881 828 4315 
Q 1253 4750 1959 4750 
Q 2769 4750 3195 4129 
Q 3622 3509 3622 2328 
Q 3622 1225 3098 567 
Q 2575 -91 1691 -91 
Q 1453 -91 1209 -44 
Q 966 3 703 97 
z
M 1959 2075 
Q 2384 2075 2632 2365 
Q 2881 2656 2881 3163 
Q 2881 3666 2632 3958 
Q 2384 4250 1959 4250 
Q 1534 4250 1286 3958 
Q 1038 3666 1038 3163 
Q 1038 2656 1286 2365 
Q 1534 2075 1959 2075 
z
" transform="scale(0.015625)"/>
       </defs>
       <use xlink:href="#DejaVuSans-39"/>
       <use xlink:href="#DejaVuSans-30" x="63.623047"/>
      </g>
     </g>
    </g>
    <g id="xtick_11">
     <g id="line2d_21">
      <path d="M 549.945 305.08 
L 549.945 17.28 
" clip-path="url(#p4a742105da)" style="fill: none; stroke: #b0b0b0; stroke-width: 0.8; stroke-linecap: square"/>
     </g>
     <g id="line2d_22">
      <g>
       <use xlink:href="#m49b8b10579" x="549.945" y="305.08" style="stroke: #000000; stroke-width: 0.8"/>
      </g>
     </g>
     <g id="text_11">
      <!-- 100 -->
      <g transform="translate(534.675 324.2375)scale(0.16 -0.16)">
       <use xlink:href="#DejaVuSans-31"/>
       <use xlink:href="#DejaVuSans-30" x="63.623047"/>
       <use xlink:href="#DejaVuSans-30" x="127.246094"/>
      </g>
     </g>
    </g>
    <g id="text_12">
     <!-- S1L [p.e.] -->
     <g transform="translate(273.43 343.7225)scale(0.16 -0.16)">
      <defs>
       <path id="DejaVuSans-53" d="M 3425 4513 
L 3425 3897 
Q 3066 4069 2747 4153 
Q 2428 4238 2131 4238 
Q 1616 4238 1336 4038 
Q 1056 3838 1056 3469 
Q 1056 3159 1242 3001 
Q 1428 2844 1947 2747 
L 2328 2669 
Q 3034 2534 3370 2195 
Q 3706 1856 3706 1288 
Q 3706 609 3251 259 
Q 2797 -91 1919 -91 
Q 1588 -91 1214 -16 
Q 841 59 441 206 
L 441 856 
Q 825 641 1194 531 
Q 1563 422 1919 422 
Q 2459 422 2753 634 
Q 3047 847 3047 1241 
Q 3047 1584 2836 1778 
Q 2625 1972 2144 2069 
L 1759 2144 
Q 1053 2284 737 2584 
Q 422 2884 422 3419 
Q 422 4038 858 4394 
Q 1294 4750 2059 4750 
Q 2388 4750 2728 4690 
Q 3069 4631 3425 4513 
z
" transform="scale(0.015625)"/>
       <path id="DejaVuSans-4c" d="M 628 4666 
L 1259 4666 
L 1259 531 
L 3531 531 
L 3531 0 
L 628 0 
L 628 4666 
z
" transform="scale(0.015625)"/>
       <path id="DejaVuSans-20" transform="scale(0.015625)"/>
       <path id="DejaVuSans-5b" d="M 550 4863 
L 1875 4863 
L 1875 4416 
L 1125 4416 
L 1125 -397 
L 1875 -397 
L 1875 -844 
L 550 -844 
L 550 4863 
z
" transform="scale(0.015625)"/>
       <path id="DejaVuSans-70" d="M 1159 525 
L 1159 -1331 
L 581 -1331 
L 581 3500 
L 1159 3500 
L 1159 2969 
Q 1341 3281 1617 3432 
Q 1894 3584 2278 3584 
Q 2916 3584 3314 3078 
Q 3713 2572 3713 1747 
Q 3713 922 3314 415 
Q 2916 -91 2278 -91 
Q 1894 -91 1617 61 
Q 1341 213 1159 525 
z
M 3116 1747 
Q 3116 2381 2855 2742 
Q 2594 3103 2138 3103 
Q 1681 3103 1420 2742 
Q 1159 2381 1159 1747 
Q 1159 1113 1420 752 
Q 1681 391 2138 391 
Q 2594 391 2855 752 
Q 3116 1113 3116 1747 
z
" transform="scale(0.015625)"/>
       <path id="DejaVuSans-2e" d="M 684 794 
L 1344 794 
L 1344 0 
L 684 0 
L 684 794 
z
" transform="scale(0.015625)"/>
       <path id="DejaVuSans-65" d="M 3597 1894 
L 3597 1613 
L 953 1613 
Q 991 1019 1311 708 
Q 1631 397 2203 397 
Q 2534 397 2845 478 
Q 3156 559 3463 722 
L 3463 178 
Q 3153 47 2828 -22 
Q 2503 -91 2169 -91 
Q 1331 -91 842 396 
Q 353 884 353 1716 
Q 353 2575 817 3079 
Q 1281 3584 2069 3584 
Q 2775 3584 3186 3129 
Q 3597 2675 3597 1894 
z
M 3022 2063 
Q 3016 2534 2758 2815 
Q 2500 3097 2075 3097 
Q 1594 3097 1305 2825 
Q 1016 2553 972 2059 
L 3022 2063 
z
" transform="scale(0.015625)"/>
       <path id="DejaVuSans-5d" d="M 1947 4863 
L 1947 -844 
L 622 -844 
L 622 -397 
L 1369 -397 
L 1369 4416 
L 622 4416 
L 622 4863 
L 1947 4863 
z
" transform="scale(0.015625)"/>
      </defs>
      <use xlink:href="#DejaVuSans-53"/>
      <use xlink:href="#DejaVuSans-31" x="63.476562"/>
      <use xlink:href="#DejaVuSans-4c" x="127.099609"/>
      <use xlink:href="#DejaVuSans-20" x="182.8125"/>
      <use xlink:href="#DejaVuSans-5b" x="214.599609"/>
      <use xlink:href="#DejaVuSans-70" x="253.613281"/>
      <use xlink:href="#DejaVuSans-2e" x="317.089844"/>
      <use xlink:href="#DejaVuSans-65" x="348.876953"/>
      <use xlink:href="#DejaVuSans-2e" x="410.400391"/>
      <use xlink:href="#DejaVuSans-5d" x="442.1875"/>
     </g>
    </g>
   </g>
   <g id="matplotlib.axis_2">
    <g id="ytick_1">
     <g id="line2d_23">
      <path d="M 73.91 305.08 
L 549.945 305.08 
" clip-path="url(#p4a742105da)" style="fill: none; stroke: #b0b0b0; stroke-width: 0.8; stroke-linecap: square"/>
     </g>
     <g id="line2d_24">
      <defs>
       <path id="mc0b869087c" d="M 0 0 
L -3.5 0 
" style="stroke: #000000; stroke-width: 0.8"/>
      </defs>
      <g>
       <use xlink:href="#mc0b869087c" x="73.91" y="305.08" style="stroke: #000000; stroke-width: 0.8"/>
      </g>
     </g>
     <g id="text_13">
      <!-- 0.00 -->
      <g transform="translate(31.285 311.15875)scale(0.16 -0.16)">
       <use xlink:href="#DejaVuSans-30"/>
       <use xlink:href="#DejaVuSans-2e" x="63.623047"/>
       <use xlink:href="#DejaVuSans-30" x="95.410156"/>
       <use xlink:href="#DejaVuSans-30" x="159.033203"/>
      </g>
     </g>
    </g>
    <g id="ytick_2">
     <g id="line2d_25">
      <path d="M 73.91 269.105 
L 549.945 269.105 
" clip-path="url(#p4a742105da)" style="fill: none; stroke: #b0b0b0; stroke-width: 0.8; stroke-linecap: square"/>
     </g>
     <g id="line2d_26">
      <g>
       <use xlink:href="#mc0b869087c" x="73.91" y="269.105" style="stroke: #000000; stroke-width: 0.8"/>
      </g>
     </g>
     <g id="text_14">
      <!-- 0.02 -->
      <g transform="translate(31.285 275.18375)scale(0.16 -0.16)">
       <use xlink:href="#DejaVuSans-30"/>
       <use xlink:href="#DejaVuSans-2e" x="63.623047"/>
       <use xlink:href="#DejaVuSans-30" x="95.410156"/>
       <use xlink:href="#DejaVuSans-32" x="159.033203"/>
      </g>
     </g>
    </g>
    <g id="ytick_3">
     <g id="line2d_27">
      <path d="M 73.91 233.13 
L 549.945 233.13 
" clip-path="url(#p4a742105da)" style="fill: none; stroke: #b0b0b0; stroke-width: 0.8; stroke-linecap: square"/>
     </g>
     <g id="line2d_28">
      <g>
       <use xlink:href="#mc0b869087c" x="73.91" y="233.13" style="stroke: #000000; stroke-width: 0.8"/>
      </g>
     </g>
     <g id="text_15">
      <!-- 0.04 -->
      <g transform="translate(31.285 239.20875)scale(0.16 -0.16)">
       <use xlink:href="#DejaVuSans-30"/>
       <use xlink:href="#DejaVuSans-2e" x="63.623047"/>
       <use xlink:href="#DejaVuSans-30" x="95.410156"/>
       <use xlink:href="#DejaVuSans-34" x="159.033203"/>
      </g>
     </g>
    </g>
    <g id="ytick_4">
     <g id="line2d_29">
      <path d="M 73.91 197.155 
L 549.945 197.155 
" clip-path="url(#p4a742105da)" style="fill: none; stroke: #b0b0b0; stroke-width: 0.8; stroke-linecap: square"/>
     </g>
     <g id="line2d_30">
      <g>
       <use xlink:href="#mc0b869087c" x="73.91" y="197.155" style="stroke: #000000; stroke-width: 0.8"/>
      </g>
     </g>
     <g id="text_16">
      <!-- 0.06 -->
      <g transform="translate(31.285 203.23375)scale(0.16 -0.16)">
       <use xlink:href="#DejaVuSans-30"/>
       <use xlink:href="#DejaVuSans-2e" x="63.623047"/>
       <use xlink:href="#DejaVuSans-30" x="95.410156"/>
       <use xlink:href="#DejaVuSans-36" x="159.033203"/>
      </g>
     </g>
    </g>
    <g id="ytick_5">
     <g id="line2d_31">
      <path d="M 73.91 161.18 
L 549.945 161.18 
" clip-path="url(#p4a742105da)" style="fill: none; stroke: #b0b0b0; stroke-width: 0.8; stroke-linecap: square"/>
     </g>
     <g id="line2d_32">
      <g>
       <use xlink:href="#mc0b869087c" x="73.91" y="161.18" style="stroke: #000000; stroke-width: 0.8"/>
      </g>
     </g>
     <g id="text_17">
      <!-- 0.08 -->
      <g transform="translate(31.285 167.25875)scale(0.16 -0.16)">
       <use xlink:href="#DejaVuSans-30"/>
       <use xlink:href="#DejaVuSans-2e" x="63.623047"/>
       <use xlink:href="#DejaVuSans-30" x="95.410156"/>
       <use xlink:href="#DejaVuSans-38" x="159.033203"/>
      </g>
     </g>
    </g>
    <g id="ytick_6">
     <g id="line2d_33">
      <path d="M 73.91 125.205 
L 549.945 125.205 
" clip-path="url(#p4a742105da)" style="fill: none; stroke: #b0b0b0; stroke-width: 0.8; stroke-linecap: square"/>
     </g>
     <g id="line2d_34">
      <g>
       <use xlink:href="#mc0b869087c" x="73.91" y="125.205" style="stroke: #000000; stroke-width: 0.8"/>
      </g>
     </g>
     <g id="text_18">
      <!-- 0.10 -->
      <g transform="translate(31.285 131.28375)scale(0.16 -0.16)">
       <use xlink:href="#DejaVuSans-30"/>
       <use xlink:href="#DejaVuSans-2e" x="63.623047"/>
       <use xlink:href="#DejaVuSans-31" x="95.410156"/>
       <use xlink:href="#DejaVuSans-30" x="159.033203"/>
      </g>
     </g>
    </g>
    <g id="ytick_7">
     <g id="line2d_35">
      <path d="M 73.91 89.23 
L 549.945 89.23 
" clip-path="url(#p4a742105da)" style="fill: none; stroke: #b0b0b0; stroke-width: 0.8; stroke-linecap: square"/>
     </g>
     <g id="line2d_36">
      <g>
       <use xlink:href="#mc0b869087c" x="73.91" y="89.23" style="stroke: #000000; stroke-width: 0.8"/>
      </g>
     </g>
     <g id="text_19">
      <!-- 0.12 -->
      <g transform="translate(31.285 95.30875)scale(0.16 -0.16)">
       <use xlink:href="#DejaVuSans-30"/>
       <use xlink:href="#DejaVuSans-2e" x="63.623047"/>
       <use xlink:href="#DejaVuSans-31" x="95.410156"/>
       <use xlink:href="#DejaVuSans-32" x="159.033203"/>
      </g>
     </g>
    </g>
    <g id="ytick_8">
     <g id="line2d_37">
      <path d="M 73.91 53.255 
L 549.945 53.255 
" clip-path="url(#p4a742105da)" style="fill: none; stroke: #b0b0b0; stroke-width: 0.8; stroke-linecap: square"/>
     </g>
     <g id="line2d_38">
      <g>
       <use xlink:href="#mc0b869087c" x="73.91" y="53.255" style="stroke: #000000; stroke-width: 0.8"/>
      </g>
     </g>
     <g id="text_20">
      <!-- 0.14 -->
      <g transform="translate(31.285 59.33375)scale(0.16 -0.16)">
       <use xlink:href="#DejaVuSans-30"/>
       <use xlink:href="#DejaVuSans-2e" x="63.623047"/>
       <use xlink:href="#DejaVuSans-31" x="95.410156"/>
       <use xlink:href="#DejaVuSans-34" x="159.033203"/>
      </g>
     </g>
    </g>
    <g id="ytick_9">
     <g id="line2d_39">
      <path d="M 73.91 17.28 
L 549.945 17.28 
" clip-path="url(#p4a742105da)" style="fill: none; stroke: #b0b0b0; stroke-width: 0.8; stroke-linecap: square"/>
     </g>
     <g id="line2d_40">
      <g>
       <use xlink:href="#mc0b869087c" x="73.91" y="17.28" style="stroke: #000000; stroke-width: 0.8"/>
      </g>
     </g>
     <g id="text_21">
      <!-- 0.16 -->
      <g transform="translate(31.285 23.35875)scale(0.16 -0.16)">
       <use xlink:href="#DejaVuSans-30"/>
       <use xlink:href="#DejaVuSans-2e" x="63.623047"/>
       <use xlink:href="#DejaVuSans-31" x="95.410156"/>
       <use xlink:href="#DejaVuSans-36" x="159.033203"/>
      </g>
     </g>
    </g>
    <g id="text_22">
     <!-- Cut efficiency -->
     <g transform="translate(23.9575 216.04)rotate(-90)scale(0.16 -0.16)">
      <defs>
       <path id="DejaVuSans-43" d="M 4122 4306 
L 4122 3641 
Q 3803 3938 3442 4084 
Q 3081 4231 2675 4231 
Q 1875 4231 1450 3742 
Q 1025 3253 1025 2328 
Q 1025 1406 1450 917 
Q 1875 428 2675 428 
Q 3081 428 3442 575 
Q 3803 722 4122 1019 
L 4122 359 
Q 3791 134 3420 21 
Q 3050 -91 2638 -91 
Q 1578 -91 968 557 
Q 359 1206 359 2328 
Q 359 3453 968 4101 
Q 1578 4750 2638 4750 
Q 3056 4750 3426 4639 
Q 3797 4528 4122 4306 
z
" transform="scale(0.015625)"/>
       <path id="DejaVuSans-75" d="M 544 1381 
L 544 3500 
L 1119 3500 
L 1119 1403 
Q 1119 906 1312 657 
Q 1506 409 1894 409 
Q 2359 409 2629 706 
Q 2900 1003 2900 1516 
L 2900 3500 
L 3475 3500 
L 3475 0 
L 2900 0 
L 2900 538 
Q 2691 219 2414 64 
Q 2138 -91 1772 -91 
Q 1169 -91 856 284 
Q 544 659 544 1381 
z
M 1991 3584 
L 1991 3584 
z
" transform="scale(0.015625)"/>
       <path id="DejaVuSans-74" d="M 1172 4494 
L 1172 3500 
L 2356 3500 
L 2356 3053 
L 1172 3053 
L 1172 1153 
Q 1172 725 1289 603 
Q 1406 481 1766 481 
L 2356 481 
L 2356 0 
L 1766 0 
Q 1100 0 847 248 
Q 594 497 594 1153 
L 594 3053 
L 172 3053 
L 172 3500 
L 594 3500 
L 594 4494 
L 1172 4494 
z
" transform="scale(0.015625)"/>
       <path id="DejaVuSans-66" d="M 2375 4863 
L 2375 4384 
L 1825 4384 
Q 1516 4384 1395 4259 
Q 1275 4134 1275 3809 
L 1275 3500 
L 2222 3500 
L 2222 3053 
L 1275 3053 
L 1275 0 
L 697 0 
L 697 3053 
L 147 3053 
L 147 3500 
L 697 3500 
L 697 3744 
Q 697 4328 969 4595 
Q 1241 4863 1831 4863 
L 2375 4863 
z
" transform="scale(0.015625)"/>
       <path id="DejaVuSans-69" d="M 603 3500 
L 1178 3500 
L 1178 0 
L 603 0 
L 603 3500 
z
M 603 4863 
L 1178 4863 
L 1178 4134 
L 603 4134 
L 603 4863 
z
" transform="scale(0.015625)"/>
       <path id="DejaVuSans-63" d="M 3122 3366 
L 3122 2828 
Q 2878 2963 2633 3030 
Q 2388 3097 2138 3097 
Q 1578 3097 1268 2742 
Q 959 2388 959 1747 
Q 959 1106 1268 751 
Q 1578 397 2138 397 
Q 2388 397 2633 464 
Q 2878 531 3122 666 
L 3122 134 
Q 2881 22 2623 -34 
Q 2366 -91 2075 -91 
Q 1284 -91 818 406 
Q 353 903 353 1747 
Q 353 2603 823 3093 
Q 1294 3584 2113 3584 
Q 2378 3584 2631 3529 
Q 2884 3475 3122 3366 
z
" transform="scale(0.015625)"/>
       <path id="DejaVuSans-6e" d="M 3513 2113 
L 3513 0 
L 2938 0 
L 2938 2094 
Q 2938 2591 2744 2837 
Q 2550 3084 2163 3084 
Q 1697 3084 1428 2787 
Q 1159 2491 1159 1978 
L 1159 0 
L 581 0 
L 581 3500 
L 1159 3500 
L 1159 2956 
Q 1366 3272 1645 3428 
Q 1925 3584 2291 3584 
Q 2894 3584 3203 3211 
Q 3513 2838 3513 2113 
z
" transform="scale(0.015625)"/>
       <path id="DejaVuSans-79" d="M 2059 -325 
Q 1816 -950 1584 -1140 
Q 1353 -1331 966 -1331 
L 506 -1331 
L 506 -850 
L 844 -850 
Q 1081 -850 1212 -737 
Q 1344 -625 1503 -206 
L 1606 56 
L 191 3500 
L 800 3500 
L 1894 763 
L 2988 3500 
L 3597 3500 
L 2059 -325 
z
" transform="scale(0.015625)"/>
      </defs>
      <use xlink:href="#DejaVuSans-43"/>
      <use xlink:href="#DejaVuSans-75" x="69.824219"/>
      <use xlink:href="#DejaVuSans-74" x="133.203125"/>
      <use xlink:href="#DejaVuSans-20" x="172.412109"/>
      <use xlink:href="#DejaVuSans-65" x="204.199219"/>
      <use xlink:href="#DejaVuSans-66" x="265.722656"/>
      <use xlink:href="#DejaVuSans-66" x="300.927734"/>
      <use xlink:href="#DejaVuSans-69" x="336.132812"/>
      <use xlink:href="#DejaVuSans-63" x="363.916016"/>
      <use xlink:href="#DejaVuSans-69" x="418.896484"/>
      <use xlink:href="#DejaVuSans-65" x="446.679688"/>
      <use xlink:href="#DejaVuSans-6e" x="508.203125"/>
      <use xlink:href="#DejaVuSans-63" x="571.582031"/>
      <use xlink:href="#DejaVuSans-79" x="626.5625"/>
     </g>
    </g>
   </g>
   <g id="LineCollection_1">
    <path d="M 73.91 304.968244 
L 121.5135 304.968244 
" clip-path="url(#p4a742105da)" style="fill: none; stroke: #000000; stroke-width: 1.5"/>
    <path d="M 121.5135 294.126025 
L 169.117 294.126025 
" clip-path="url(#p4a742105da)" style="fill: none; stroke: #000000; stroke-width: 1.5"/>
    <path d="M 169.117 239.092643 
L 216.7205 239.092643 
" clip-path="url(#p4a742105da)" style="fill: none; stroke: #000000; stroke-width: 1.5"/>
    <path d="M 216.7205 180.19599 
L 264.324 180.19599 
" clip-path="url(#p4a742105da)" style="fill: none; stroke: #000000; stroke-width: 1.5"/>
    <path d="M 264.324 177.746108 
L 311.9275 177.746108 
" clip-path="url(#p4a742105da)" style="fill: none; stroke: #000000; stroke-width: 1.5"/>
    <path d="M 311.9275 112.896749 
L 359.531 112.896749 
" clip-path="url(#p4a742105da)" style="fill: none; stroke: #000000; stroke-width: 1.5"/>
    <path d="M 359.531 99.940682 
L 407.1345 99.940682 
" clip-path="url(#p4a742105da)" style="fill: none; stroke: #000000; stroke-width: 1.5"/>
    <path d="M 407.1345 151.50506 
L 454.738 151.50506 
" clip-path="url(#p4a742105da)" style="fill: none; stroke: #000000; stroke-width: 1.5"/>
    <path d="M 454.738 121.977883 
L 502.3415 121.977883 
" clip-path="url(#p4a742105da)" style="fill: none; stroke: #000000; stroke-width: 1.5"/>
    <path d="M 502.3415 44.917633 
L 549.945 44.917633 
" clip-path="url(#p4a742105da)" style="fill: none; stroke: #000000; stroke-width: 1.5"/>
   </g>
   <g id="LineCollection_2">
    <path d="M 97.71175 304.984344 
L 97.71175 304.952143 
" clip-path="url(#p4a742105da)" style="fill: none; stroke: #000000; stroke-width: 1.5"/>
    <path d="M 145.31525 295.134127 
L 145.31525 293.117923 
" clip-path="url(#p4a742105da)" style="fill: none; stroke: #000000; stroke-width: 1.5"/>
    <path d="M 192.91875 243.257691 
L 192.91875 234.927595 
" clip-path="url(#p4a742105da)" style="fill: none; stroke: #000000; stroke-width: 1.5"/>
    <path d="M 240.52225 190.565539 
L 240.52225 169.826442 
" clip-path="url(#p4a742105da)" style="fill: none; stroke: #000000; stroke-width: 1.5"/>
    <path d="M 288.12575 189.119769 
L 288.12575 166.372447 
" clip-path="url(#p4a742105da)" style="fill: none; stroke: #000000; stroke-width: 1.5"/>
    <path d="M 335.72925 137.26548 
L 335.72925 88.528018 
" clip-path="url(#p4a742105da)" style="fill: none; stroke: #000000; stroke-width: 1.5"/>
    <path d="M 383.33275 122.033913 
L 383.33275 77.847451 
" clip-path="url(#p4a742105da)" style="fill: none; stroke: #000000; stroke-width: 1.5"/>
    <path d="M 430.93625 165.798839 
L 430.93625 137.21128 
" clip-path="url(#p4a742105da)" style="fill: none; stroke: #000000; stroke-width: 1.5"/>
    <path d="M 478.53975 150.563604 
L 478.53975 93.392162 
" clip-path="url(#p4a742105da)" style="fill: none; stroke: #000000; stroke-width: 1.5"/>
    <path d="M 526.14325 68.672806 
L 526.14325 21.16246 
" clip-path="url(#p4a742105da)" style="fill: none; stroke: #000000; stroke-width: 1.5"/>
   </g>
   <g id="line2d_41">
    <defs>
     <path id="m949b6c419e" d="M 0 2 
L 0 -2 
" style="stroke: #000000"/>
    </defs>
    <g clip-path="url(#p4a742105da)">
     <use xlink:href="#m949b6c419e" x="73.91" y="304.968244" style="stroke: #000000"/>
     <use xlink:href="#m949b6c419e" x="121.5135" y="294.126025" style="stroke: #000000"/>
     <use xlink:href="#m949b6c419e" x="169.117" y="239.092643" style="stroke: #000000"/>
     <use xlink:href="#m949b6c419e" x="216.7205" y="180.19599" style="stroke: #000000"/>
     <use xlink:href="#m949b6c419e" x="264.324" y="177.746108" style="stroke: #000000"/>
     <use xlink:href="#m949b6c419e" x="311.9275" y="112.896749" style="stroke: #000000"/>
     <use xlink:href="#m949b6c419e" x="359.531" y="99.940682" style="stroke: #000000"/>
     <use xlink:href="#m949b6c419e" x="407.1345" y="151.50506" style="stroke: #000000"/>
     <use xlink:href="#m949b6c419e" x="454.738" y="121.977883" style="stroke: #000000"/>
     <use xlink:href="#m949b6c419e" x="502.3415" y="44.917633" style="stroke: #000000"/>
    </g>
   </g>
   <g id="line2d_42">
    <g clip-path="url(#p4a742105da)">
     <use xlink:href="#m949b6c419e" x="121.5135" y="304.968244" style="stroke: #000000"/>
     <use xlink:href="#m949b6c419e" x="169.117" y="294.126025" style="stroke: #000000"/>
     <use xlink:href="#m949b6c419e" x="216.7205" y="239.092643" style="stroke: #000000"/>
     <use xlink:href="#m949b6c419e" x="264.324" y="180.19599" style="stroke: #000000"/>
     <use xlink:href="#m949b6c419e" x="311.9275" y="177.746108" style="stroke: #000000"/>
     <use xlink:href="#m949b6c419e" x="359.531" y="112.896749" style="stroke: #000000"/>
     <use xlink:href="#m949b6c419e" x="407.1345" y="99.940682" style="stroke: #000000"/>
     <use xlink:href="#m949b6c419e" x="454.738" y="151.50506" style="stroke: #000000"/>
     <use xlink:href="#m949b6c419e" x="502.3415" y="121.977883" style="stroke: #000000"/>
     <use xlink:href="#m949b6c419e" x="549.945" y="44.917633" style="stroke: #000000"/>
    </g>
   </g>
   <g id="line2d_43">
    <defs>
     <path id="m575620dab0" d="M 2 0 
L -2 -0 
" style="stroke: #000000"/>
    </defs>
    <g clip-path="url(#p4a742105da)">
     <use xlink:href="#m575620dab0" x="97.71175" y="304.984344" style="stroke: #000000"/>
     <use xlink:href="#m575620dab0" x="145.31525" y="295.134127" style="stroke: #000000"/>
     <use xlink:href="#m575620dab0" x="192.91875" y="243.257691" style="stroke: #000000"/>
     <use xlink:href="#m575620dab0" x="240.52225" y="190.565539" style="stroke: #000000"/>
     <use xlink:href="#m575620dab0" x="288.12575" y="189.119769" style="stroke: #000000"/>
     <use xlink:href="#m575620dab0" x="335.72925" y="137.26548" style="stroke: #000000"/>
     <use xlink:href="#m575620dab0" x="383.33275" y="122.033913" style="stroke: #000000"/>
     <use xlink:href="#m575620dab0" x="430.93625" y="165.798839" style="stroke: #000000"/>
     <use xlink:href="#m575620dab0" x="478.53975" y="150.563604" style="stroke: #000000"/>
     <use xlink:href="#m575620dab0" x="526.14325" y="68.672806" style="stroke: #000000"/>
    </g>
   </g>
   <g id="line2d_44">
    <g clip-path="url(#p4a742105da)">
     <use xlink:href="#m575620dab0" x="97.71175" y="304.952143" style="stroke: #000000"/>
     <use xlink:href="#m575620dab0" x="145.31525" y="293.117923" style="stroke: #000000"/>
     <use xlink:href="#m575620dab0" x="192.91875" y="234.927595" style="stroke: #000000"/>
     <use xlink:href="#m575620dab0" x="240.52225" y="169.826442" style="stroke: #000000"/>
     <use xlink:href="#m575620dab0" x="288.12575" y="166.372447" style="stroke: #000000"/>
     <use xlink:href="#m575620dab0" x="335.72925" y="88.528018" style="stroke: #000000"/>
     <use xlink:href="#m575620dab0" x="383.33275" y="77.847451" style="stroke: #000000"/>
     <use xlink:href="#m575620dab0" x="430.93625" y="137.21128" style="stroke: #000000"/>
     <use xlink:href="#m575620dab0" x="478.53975" y="93.392162" style="stroke: #000000"/>
     <use xlink:href="#m575620dab0" x="526.14325" y="21.16246" style="stroke: #000000"/>
    </g>
   </g>
   <g id="line2d_45">
    <defs>
     <path id="m0bb051596d" d="M 0 3 
C 0.795609 3 1.55874 2.683901 2.12132 2.12132 
C 2.683901 1.55874 3 0.795609 3 0 
C 3 -0.795609 2.683901 -1.55874 2.12132 -2.12132 
C 1.55874 -2.683901 0.795609 -3 0 -3 
C -0.795609 -3 -1.55874 -2.683901 -2.12132 -2.12132 
C -2.683901 -1.55874 -3 -0.795609 -3 0 
C -3 0.795609 -2.683901 1.55874 -2.12132 2.12132 
C -1.55874 2.683901 -0.795609 3 0 3 
z
" style="stroke: #000000"/>
    </defs>
    <g clip-path="url(#p4a742105da)">
     <use xlink:href="#m0bb051596d" x="97.71175" y="304.968244" style="stroke: #000000"/>
     <use xlink:href="#m0bb051596d" x="145.31525" y="294.126025" style="stroke: #000000"/>
     <use xlink:href="#m0bb051596d" x="192.91875" y="239.092643" style="stroke: #000000"/>
     <use xlink:href="#m0bb051596d" x="240.52225" y="180.19599" style="stroke: #000000"/>
     <use xlink:href="#m0bb051596d" x="288.12575" y="177.746108" style="stroke: #000000"/>
     <use xlink:href="#m0bb051596d" x="335.72925" y="112.896749" style="stroke: #000000"/>
     <use xlink:href="#m0bb051596d" x="383.33275" y="99.940682" style="stroke: #000000"/>
     <use xlink:href="#m0bb051596d" x="430.93625" y="151.50506" style="stroke: #000000"/>
     <use xlink:href="#m0bb051596d" x="478.53975" y="121.977883" style="stroke: #000000"/>
     <use xlink:href="#m0bb051596d" x="526.14325" y="44.917633" style="stroke: #000000"/>
    </g>
   </g>
   <g id="patch_3">
    <path d="M 73.91 305.08 
L 73.91 17.28 
" style="fill: none; stroke: #000000; stroke-width: 0.8; stroke-linejoin: miter; stroke-linecap: square"/>
   </g>
   <g id="patch_4">
    <path d="M 549.945 305.08 
L 549.945 17.28 
" style="fill: none; stroke: #000000; stroke-width: 0.8; stroke-linejoin: miter; stroke-linecap: square"/>
   </g>
   <g id="patch_5">
    <path d="M 73.91 305.08 
L 549.945 305.08 
" style="fill: none; stroke: #000000; stroke-width: 0.8; stroke-linejoin: miter; stroke-linecap: square"/>
   </g>
   <g id="patch_6">
    <path d="M 73.91 17.28 
L 549.945 17.28 
" style="fill: none; stroke: #000000; stroke-width: 0.8; stroke-linejoin: miter; stroke-linecap: square"/>
   </g>
  </g>
 </g>
 <defs>
  <clipPath id="p4a742105da">
   <rect x="73.91" y="17.28" width="476.035" height="287.8"/>
  </clipPath>
 </defs>
</svg>
