<?xml version="1.0" encoding="utf-8" standalone="no"?>
<!DOCTYPE svg PUBLIC "-//W3C//DTD SVG 1.1//EN"
  "http://www.w3.org/Graphics/SVG/1.1/DTD/svg11.dtd">
<svg xmlns:xlink="http://www.w3.org/1999/xlink" width="504pt" height="360pt" viewBox="0 0 504 360" xmlns="http://www.w3.org/2000/svg" version="1.1">
 <metadata>
  <rdf:RDF xmlns:dc="http://purl.org/dc/elements/1.1/" xmlns:cc="http://creativecommons.org/ns#" xmlns:rdf="http://www.w3.org/1999/02/22-rdf-syntax-ns#">
   <cc:Work>
    <dc:type rdf:resource="http://purl.org/dc/dcmitype/StillImage"/>
    <dc:date>2022-08-17T22:43:01.407700</dc:date>
    <dc:format>image/svg+xml</dc:format>
    <dc:creator>
     <cc:Agent>
      <dc:title>Matplotlib v3.5.1, https://matplotlib.org/</dc:title>
     </cc:Agent>
    </dc:creator>
   </cc:Work>
  </rdf:RDF>
 </metadata>
 <defs>
  <style type="text/css">*{stroke-linejoin: round; stroke-linecap: butt}</style>
 </defs>
 <g id="figure_1">
  <g id="patch_1">
   <path d="M 0 360 
L 504 360 
L 504 0 
L 0 0 
z
" style="fill: #ffffff"/>
  </g>
  <g id="axes_1">
   <g id="patch_2">
    <path d="M 86.636134 297.88 
L 486.855 297.88 
L 486.855 31.008 
L 86.636134 31.008 
z
" style="fill: #ffffff"/>
   </g>
   <g id="matplotlib.axis_1">
    <g id="xtick_1">
     <g id="line2d_1">
      <path d="M 86.636134 297.88 
L 86.636134 31.008 
" clip-path="url(#p89578d0be6)" style="fill: none; stroke: #b0b0b0; stroke-opacity: 0.5; stroke-width: 0.8; stroke-linecap: square"/>
     </g>
     <g id="line2d_2">
      <defs>
       <path id="m073032ac4f" d="M 0 0 
L 0 3.5 
" style="stroke: #000000; stroke-width: 0.8"/>
      </defs>
      <g>
       <use xlink:href="#m073032ac4f" x="86.636134" y="297.88" style="stroke: #000000; stroke-width: 0.8"/>
      </g>
     </g>
     <g id="text_1">
      <!-- 0 -->
      <g transform="translate(80.273634 320.076875)scale(0.2 -0.2)">
       <defs>
        <path id="DejaVuSans-30" d="M 2034 4250 
Q 1547 4250 1301 3770 
Q 1056 3291 1056 2328 
Q 1056 1369 1301 889 
Q 1547 409 2034 409 
Q 2525 409 2770 889 
Q 3016 1369 3016 2328 
Q 3016 3291 2770 3770 
Q 2525 4250 2034 4250 
z
M 2034 4750 
Q 2819 4750 3233 4129 
Q 3647 3509 3647 2328 
Q 3647 1150 3233 529 
Q 2819 -91 2034 -91 
Q 1250 -91 836 529 
Q 422 1150 422 2328 
Q 422 3509 836 4129 
Q 1250 4750 2034 4750 
z
" transform="scale(0.015625)"/>
       </defs>
       <use xlink:href="#DejaVuSans-30"/>
      </g>
     </g>
    </g>
    <g id="xtick_2">
     <g id="line2d_3">
      <path d="M 186.690851 297.88 
L 186.690851 31.008 
" clip-path="url(#p89578d0be6)" style="fill: none; stroke: #b0b0b0; stroke-opacity: 0.5; stroke-width: 0.8; stroke-linecap: square"/>
     </g>
     <g id="line2d_4">
      <g>
       <use xlink:href="#m073032ac4f" x="186.690851" y="297.88" style="stroke: #000000; stroke-width: 0.8"/>
      </g>
     </g>
     <g id="text_2">
      <!-- 1 -->
      <g transform="translate(180.328351 320.076875)scale(0.2 -0.2)">
       <defs>
        <path id="DejaVuSans-31" d="M 794 531 
L 1825 531 
L 1825 4091 
L 703 3866 
L 703 4441 
L 1819 4666 
L 2450 4666 
L 2450 531 
L 3481 531 
L 3481 0 
L 794 0 
L 794 531 
z
" transform="scale(0.015625)"/>
       </defs>
       <use xlink:href="#DejaVuSans-31"/>
      </g>
     </g>
    </g>
    <g id="xtick_3">
     <g id="line2d_5">
      <path d="M 286.745567 297.88 
L 286.745567 31.008 
" clip-path="url(#p89578d0be6)" style="fill: none; stroke: #b0b0b0; stroke-opacity: 0.5; stroke-width: 0.8; stroke-linecap: square"/>
     </g>
     <g id="line2d_6">
      <g>
       <use xlink:href="#m073032ac4f" x="286.745567" y="297.88" style="stroke: #000000; stroke-width: 0.8"/>
      </g>
     </g>
     <g id="text_3">
      <!-- 2 -->
      <g transform="translate(280.383067 320.076875)scale(0.2 -0.2)">
       <defs>
        <path id="DejaVuSans-32" d="M 1228 531 
L 3431 531 
L 3431 0 
L 469 0 
L 469 531 
Q 828 903 1448 1529 
Q 2069 2156 2228 2338 
Q 2531 2678 2651 2914 
Q 2772 3150 2772 3378 
Q 2772 3750 2511 3984 
Q 2250 4219 1831 4219 
Q 1534 4219 1204 4116 
Q 875 4013 500 3803 
L 500 4441 
Q 881 4594 1212 4672 
Q 1544 4750 1819 4750 
Q 2544 4750 2975 4387 
Q 3406 4025 3406 3419 
Q 3406 3131 3298 2873 
Q 3191 2616 2906 2266 
Q 2828 2175 2409 1742 
Q 1991 1309 1228 531 
z
" transform="scale(0.015625)"/>
       </defs>
       <use xlink:href="#DejaVuSans-32"/>
      </g>
     </g>
    </g>
    <g id="xtick_4">
     <g id="line2d_7">
      <path d="M 386.800284 297.88 
L 386.800284 31.008 
" clip-path="url(#p89578d0be6)" style="fill: none; stroke: #b0b0b0; stroke-opacity: 0.5; stroke-width: 0.8; stroke-linecap: square"/>
     </g>
     <g id="line2d_8">
      <g>
       <use xlink:href="#m073032ac4f" x="386.800284" y="297.88" style="stroke: #000000; stroke-width: 0.8"/>
      </g>
     </g>
     <g id="text_4">
      <!-- 3 -->
      <g transform="translate(380.437784 320.076875)scale(0.2 -0.2)">
       <defs>
        <path id="DejaVuSans-33" d="M 2597 2516 
Q 3050 2419 3304 2112 
Q 3559 1806 3559 1356 
Q 3559 666 3084 287 
Q 2609 -91 1734 -91 
Q 1441 -91 1130 -33 
Q 819 25 488 141 
L 488 750 
Q 750 597 1062 519 
Q 1375 441 1716 441 
Q 2309 441 2620 675 
Q 2931 909 2931 1356 
Q 2931 1769 2642 2001 
Q 2353 2234 1838 2234 
L 1294 2234 
L 1294 2753 
L 1863 2753 
Q 2328 2753 2575 2939 
Q 2822 3125 2822 3475 
Q 2822 3834 2567 4026 
Q 2313 4219 1838 4219 
Q 1578 4219 1281 4162 
Q 984 4106 628 3988 
L 628 4550 
Q 988 4650 1302 4700 
Q 1616 4750 1894 4750 
Q 2613 4750 3031 4423 
Q 3450 4097 3450 3541 
Q 3450 3153 3228 2886 
Q 3006 2619 2597 2516 
z
" transform="scale(0.015625)"/>
       </defs>
       <use xlink:href="#DejaVuSans-33"/>
      </g>
     </g>
    </g>
    <g id="xtick_5">
     <g id="line2d_9">
      <path d="M 486.855 297.88 
L 486.855 31.008 
" clip-path="url(#p89578d0be6)" style="fill: none; stroke: #b0b0b0; stroke-opacity: 0.5; stroke-width: 0.8; stroke-linecap: square"/>
     </g>
     <g id="line2d_10">
      <g>
       <use xlink:href="#m073032ac4f" x="486.855" y="297.88" style="stroke: #000000; stroke-width: 0.8"/>
      </g>
     </g>
     <g id="text_5">
      <!-- 4 -->
      <g transform="translate(480.4925 320.076875)scale(0.2 -0.2)">
       <defs>
        <path id="DejaVuSans-34" d="M 2419 4116 
L 825 1625 
L 2419 1625 
L 2419 4116 
z
M 2253 4666 
L 3047 4666 
L 3047 1625 
L 3713 1625 
L 3713 1100 
L 3047 1100 
L 3047 0 
L 2419 0 
L 2419 1100 
L 313 1100 
L 313 1709 
L 2253 4666 
z
" transform="scale(0.015625)"/>
       </defs>
       <use xlink:href="#DejaVuSans-34"/>
      </g>
     </g>
    </g>
    <g id="text_6">
     <!-- S2maxQMatch -->
     <g transform="translate(213.862755 343.433125)scale(0.2 -0.2)">
      <defs>
       <path id="DejaVuSans-53" d="M 3425 4513 
L 3425 3897 
Q 3066 4069 2747 4153 
Q 2428 4238 2131 4238 
Q 1616 4238 1336 4038 
Q 1056 3838 1056 3469 
Q 1056 3159 1242 3001 
Q 1428 2844 1947 2747 
L 2328 2669 
Q 3034 2534 3370 2195 
Q 3706 1856 3706 1288 
Q 3706 609 3251 259 
Q 2797 -91 1919 -91 
Q 1588 -91 1214 -16 
Q 841 59 441 206 
L 441 856 
Q 825 641 1194 531 
Q 1563 422 1919 422 
Q 2459 422 2753 634 
Q 3047 847 3047 1241 
Q 3047 1584 2836 1778 
Q 2625 1972 2144 2069 
L 1759 2144 
Q 1053 2284 737 2584 
Q 422 2884 422 3419 
Q 422 4038 858 4394 
Q 1294 4750 2059 4750 
Q 2388 4750 2728 4690 
Q 3069 4631 3425 4513 
z
" transform="scale(0.015625)"/>
       <path id="DejaVuSans-6d" d="M 3328 2828 
Q 3544 3216 3844 3400 
Q 4144 3584 4550 3584 
Q 5097 3584 5394 3201 
Q 5691 2819 5691 2113 
L 5691 0 
L 5113 0 
L 5113 2094 
Q 5113 2597 4934 2840 
Q 4756 3084 4391 3084 
Q 3944 3084 3684 2787 
Q 3425 2491 3425 1978 
L 3425 0 
L 2847 0 
L 2847 2094 
Q 2847 2600 2669 2842 
Q 2491 3084 2119 3084 
Q 1678 3084 1418 2786 
Q 1159 2488 1159 1978 
L 1159 0 
L 581 0 
L 581 3500 
L 1159 3500 
L 1159 2956 
Q 1356 3278 1631 3431 
Q 1906 3584 2284 3584 
Q 2666 3584 2933 3390 
Q 3200 3197 3328 2828 
z
" transform="scale(0.015625)"/>
       <path id="DejaVuSans-61" d="M 2194 1759 
Q 1497 1759 1228 1600 
Q 959 1441 959 1056 
Q 959 750 1161 570 
Q 1363 391 1709 391 
Q 2188 391 2477 730 
Q 2766 1069 2766 1631 
L 2766 1759 
L 2194 1759 
z
M 3341 1997 
L 3341 0 
L 2766 0 
L 2766 531 
Q 2569 213 2275 61 
Q 1981 -91 1556 -91 
Q 1019 -91 701 211 
Q 384 513 384 1019 
Q 384 1609 779 1909 
Q 1175 2209 1959 2209 
L 2766 2209 
L 2766 2266 
Q 2766 2663 2505 2880 
Q 2244 3097 1772 3097 
Q 1472 3097 1187 3025 
Q 903 2953 641 2809 
L 641 3341 
Q 956 3463 1253 3523 
Q 1550 3584 1831 3584 
Q 2591 3584 2966 3190 
Q 3341 2797 3341 1997 
z
" transform="scale(0.015625)"/>
       <path id="DejaVuSans-78" d="M 3513 3500 
L 2247 1797 
L 3578 0 
L 2900 0 
L 1881 1375 
L 863 0 
L 184 0 
L 1544 1831 
L 300 3500 
L 978 3500 
L 1906 2253 
L 2834 3500 
L 3513 3500 
z
" transform="scale(0.015625)"/>
       <path id="DejaVuSans-51" d="M 2522 4238 
Q 1834 4238 1429 3725 
Q 1025 3213 1025 2328 
Q 1025 1447 1429 934 
Q 1834 422 2522 422 
Q 3209 422 3611 934 
Q 4013 1447 4013 2328 
Q 4013 3213 3611 3725 
Q 3209 4238 2522 4238 
z
M 3406 84 
L 4238 -825 
L 3475 -825 
L 2784 -78 
Q 2681 -84 2626 -87 
Q 2572 -91 2522 -91 
Q 1538 -91 948 567 
Q 359 1225 359 2328 
Q 359 3434 948 4092 
Q 1538 4750 2522 4750 
Q 3503 4750 4090 4092 
Q 4678 3434 4678 2328 
Q 4678 1516 4351 937 
Q 4025 359 3406 84 
z
" transform="scale(0.015625)"/>
       <path id="DejaVuSans-4d" d="M 628 4666 
L 1569 4666 
L 2759 1491 
L 3956 4666 
L 4897 4666 
L 4897 0 
L 4281 0 
L 4281 4097 
L 3078 897 
L 2444 897 
L 1241 4097 
L 1241 0 
L 628 0 
L 628 4666 
z
" transform="scale(0.015625)"/>
       <path id="DejaVuSans-74" d="M 1172 4494 
L 1172 3500 
L 2356 3500 
L 2356 3053 
L 1172 3053 
L 1172 1153 
Q 1172 725 1289 603 
Q 1406 481 1766 481 
L 2356 481 
L 2356 0 
L 1766 0 
Q 1100 0 847 248 
Q 594 497 594 1153 
L 594 3053 
L 172 3053 
L 172 3500 
L 594 3500 
L 594 4494 
L 1172 4494 
z
" transform="scale(0.015625)"/>
       <path id="DejaVuSans-63" d="M 3122 3366 
L 3122 2828 
Q 2878 2963 2633 3030 
Q 2388 3097 2138 3097 
Q 1578 3097 1268 2742 
Q 959 2388 959 1747 
Q 959 1106 1268 751 
Q 1578 397 2138 397 
Q 2388 397 2633 464 
Q 2878 531 3122 666 
L 3122 134 
Q 2881 22 2623 -34 
Q 2366 -91 2075 -91 
Q 1284 -91 818 406 
Q 353 903 353 1747 
Q 353 2603 823 3093 
Q 1294 3584 2113 3584 
Q 2378 3584 2631 3529 
Q 2884 3475 3122 3366 
z
" transform="scale(0.015625)"/>
       <path id="DejaVuSans-68" d="M 3513 2113 
L 3513 0 
L 2938 0 
L 2938 2094 
Q 2938 2591 2744 2837 
Q 2550 3084 2163 3084 
Q 1697 3084 1428 2787 
Q 1159 2491 1159 1978 
L 1159 0 
L 581 0 
L 581 4863 
L 1159 4863 
L 1159 2956 
Q 1366 3272 1645 3428 
Q 1925 3584 2291 3584 
Q 2894 3584 3203 3211 
Q 3513 2838 3513 2113 
z
" transform="scale(0.015625)"/>
      </defs>
      <use xlink:href="#DejaVuSans-53"/>
      <use xlink:href="#DejaVuSans-32" x="63.476562"/>
      <use xlink:href="#DejaVuSans-6d" x="127.099609"/>
      <use xlink:href="#DejaVuSans-61" x="224.511719"/>
      <use xlink:href="#DejaVuSans-78" x="285.791016"/>
      <use xlink:href="#DejaVuSans-51" x="344.970703"/>
      <use xlink:href="#DejaVuSans-4d" x="423.681641"/>
      <use xlink:href="#DejaVuSans-61" x="509.960938"/>
      <use xlink:href="#DejaVuSans-74" x="571.240234"/>
      <use xlink:href="#DejaVuSans-63" x="610.449219"/>
      <use xlink:href="#DejaVuSans-68" x="665.429688"/>
     </g>
    </g>
   </g>
   <g id="matplotlib.axis_2">
    <g id="ytick_1">
     <g id="line2d_11">
      <path d="M 86.636134 297.88 
L 486.855 297.88 
" clip-path="url(#p89578d0be6)" style="fill: none; stroke: #b0b0b0; stroke-opacity: 0.5; stroke-width: 0.8; stroke-linecap: square"/>
     </g>
     <g id="line2d_12">
      <defs>
       <path id="m6c417e7871" d="M 0 0 
L -3.5 0 
" style="stroke: #000000; stroke-width: 0.8"/>
      </defs>
      <g>
       <use xlink:href="#m6c417e7871" x="86.636134" y="297.88" style="stroke: #000000; stroke-width: 0.8"/>
      </g>
     </g>
     <g id="text_7">
      <!-- $\mathdefault{0.00}$ -->
      <g transform="translate(35.036134 305.478437)scale(0.2 -0.2)">
       <defs>
        <path id="DejaVuSans-2e" d="M 684 794 
L 1344 794 
L 1344 0 
L 684 0 
L 684 794 
z
" transform="scale(0.015625)"/>
       </defs>
       <use xlink:href="#DejaVuSans-30" transform="translate(0 0.78125)"/>
       <use xlink:href="#DejaVuSans-2e" transform="translate(63.623047 0.78125)"/>
       <use xlink:href="#DejaVuSans-30" transform="translate(95.410156 0.78125)"/>
       <use xlink:href="#DejaVuSans-30" transform="translate(159.033203 0.78125)"/>
      </g>
     </g>
    </g>
    <g id="ytick_2">
     <g id="line2d_13">
      <path d="M 86.636134 208.922667 
L 486.855 208.922667 
" clip-path="url(#p89578d0be6)" style="fill: none; stroke: #b0b0b0; stroke-opacity: 0.5; stroke-width: 0.8; stroke-linecap: square"/>
     </g>
     <g id="line2d_14">
      <g>
       <use xlink:href="#m6c417e7871" x="86.636134" y="208.922667" style="stroke: #000000; stroke-width: 0.8"/>
      </g>
     </g>
     <g id="text_8">
      <!-- $\mathdefault{0.00}$ -->
      <g transform="translate(35.036134 216.521104)scale(0.2 -0.2)">
       <use xlink:href="#DejaVuSans-30" transform="translate(0 0.78125)"/>
       <use xlink:href="#DejaVuSans-2e" transform="translate(63.623047 0.78125)"/>
       <use xlink:href="#DejaVuSans-30" transform="translate(95.410156 0.78125)"/>
       <use xlink:href="#DejaVuSans-30" transform="translate(159.033203 0.78125)"/>
      </g>
     </g>
    </g>
    <g id="ytick_3">
     <g id="line2d_15">
      <path d="M 86.636134 119.965333 
L 486.855 119.965333 
" clip-path="url(#p89578d0be6)" style="fill: none; stroke: #b0b0b0; stroke-opacity: 0.5; stroke-width: 0.8; stroke-linecap: square"/>
     </g>
     <g id="line2d_16">
      <g>
       <use xlink:href="#m6c417e7871" x="86.636134" y="119.965333" style="stroke: #000000; stroke-width: 0.8"/>
      </g>
     </g>
     <g id="text_9">
      <!-- $\mathdefault{0.01}$ -->
      <g transform="translate(35.036134 127.563771)scale(0.2 -0.2)">
       <use xlink:href="#DejaVuSans-30" transform="translate(0 0.78125)"/>
       <use xlink:href="#DejaVuSans-2e" transform="translate(63.623047 0.78125)"/>
       <use xlink:href="#DejaVuSans-30" transform="translate(95.410156 0.78125)"/>
       <use xlink:href="#DejaVuSans-31" transform="translate(159.033203 0.78125)"/>
      </g>
     </g>
    </g>
    <g id="ytick_4">
     <g id="line2d_17">
      <path d="M 86.636134 31.008 
L 486.855 31.008 
" clip-path="url(#p89578d0be6)" style="fill: none; stroke: #b0b0b0; stroke-opacity: 0.5; stroke-width: 0.8; stroke-linecap: square"/>
     </g>
     <g id="line2d_18">
      <g>
       <use xlink:href="#m6c417e7871" x="86.636134" y="31.008" style="stroke: #000000; stroke-width: 0.8"/>
      </g>
     </g>
     <g id="text_10">
      <!-- $\mathdefault{1.00}$ -->
      <g transform="translate(35.036134 38.606438)scale(0.2 -0.2)">
       <use xlink:href="#DejaVuSans-31" transform="translate(0 0.78125)"/>
       <use xlink:href="#DejaVuSans-2e" transform="translate(63.623047 0.78125)"/>
       <use xlink:href="#DejaVuSans-30" transform="translate(95.410156 0.78125)"/>
       <use xlink:href="#DejaVuSans-30" transform="translate(159.033203 0.78125)"/>
      </g>
     </g>
    </g>
    <g id="text_11">
     <!-- Counts -->
     <g transform="translate(26.876759 199.35025)rotate(-90)scale(0.2 -0.2)">
      <defs>
       <path id="DejaVuSans-43" d="M 4122 4306 
L 4122 3641 
Q 3803 3938 3442 4084 
Q 3081 4231 2675 4231 
Q 1875 4231 1450 3742 
Q 1025 3253 1025 2328 
Q 1025 1406 1450 917 
Q 1875 428 2675 428 
Q 3081 428 3442 575 
Q 3803 722 4122 1019 
L 4122 359 
Q 3791 134 3420 21 
Q 3050 -91 2638 -91 
Q 1578 -91 968 557 
Q 359 1206 359 2328 
Q 359 3453 968 4101 
Q 1578 4750 2638 4750 
Q 3056 4750 3426 4639 
Q 3797 4528 4122 4306 
z
" transform="scale(0.015625)"/>
       <path id="DejaVuSans-6f" d="M 1959 3097 
Q 1497 3097 1228 2736 
Q 959 2375 959 1747 
Q 959 1119 1226 758 
Q 1494 397 1959 397 
Q 2419 397 2687 759 
Q 2956 1122 2956 1747 
Q 2956 2369 2687 2733 
Q 2419 3097 1959 3097 
z
M 1959 3584 
Q 2709 3584 3137 3096 
Q 3566 2609 3566 1747 
Q 3566 888 3137 398 
Q 2709 -91 1959 -91 
Q 1206 -91 779 398 
Q 353 888 353 1747 
Q 353 2609 779 3096 
Q 1206 3584 1959 3584 
z
" transform="scale(0.015625)"/>
       <path id="DejaVuSans-75" d="M 544 1381 
L 544 3500 
L 1119 3500 
L 1119 1403 
Q 1119 906 1312 657 
Q 1506 409 1894 409 
Q 2359 409 2629 706 
Q 2900 1003 2900 1516 
L 2900 3500 
L 3475 3500 
L 3475 0 
L 2900 0 
L 2900 538 
Q 2691 219 2414 64 
Q 2138 -91 1772 -91 
Q 1169 -91 856 284 
Q 544 659 544 1381 
z
M 1991 3584 
L 1991 3584 
z
" transform="scale(0.015625)"/>
       <path id="DejaVuSans-6e" d="M 3513 2113 
L 3513 0 
L 2938 0 
L 2938 2094 
Q 2938 2591 2744 2837 
Q 2550 3084 2163 3084 
Q 1697 3084 1428 2787 
Q 1159 2491 1159 1978 
L 1159 0 
L 581 0 
L 581 3500 
L 1159 3500 
L 1159 2956 
Q 1366 3272 1645 3428 
Q 1925 3584 2291 3584 
Q 2894 3584 3203 3211 
Q 3513 2838 3513 2113 
z
" transform="scale(0.015625)"/>
       <path id="DejaVuSans-73" d="M 2834 3397 
L 2834 2853 
Q 2591 2978 2328 3040 
Q 2066 3103 1784 3103 
Q 1356 3103 1142 2972 
Q 928 2841 928 2578 
Q 928 2378 1081 2264 
Q 1234 2150 1697 2047 
L 1894 2003 
Q 2506 1872 2764 1633 
Q 3022 1394 3022 966 
Q 3022 478 2636 193 
Q 2250 -91 1575 -91 
Q 1294 -91 989 -36 
Q 684 19 347 128 
L 347 722 
Q 666 556 975 473 
Q 1284 391 1588 391 
Q 1994 391 2212 530 
Q 2431 669 2431 922 
Q 2431 1156 2273 1281 
Q 2116 1406 1581 1522 
L 1381 1569 
Q 847 1681 609 1914 
Q 372 2147 372 2553 
Q 372 3047 722 3315 
Q 1072 3584 1716 3584 
Q 2034 3584 2315 3537 
Q 2597 3491 2834 3397 
z
" transform="scale(0.015625)"/>
      </defs>
      <use xlink:href="#DejaVuSans-43"/>
      <use xlink:href="#DejaVuSans-6f" x="69.824219"/>
      <use xlink:href="#DejaVuSans-75" x="131.005859"/>
      <use xlink:href="#DejaVuSans-6e" x="194.384766"/>
      <use xlink:href="#DejaVuSans-74" x="257.763672"/>
      <use xlink:href="#DejaVuSans-73" x="296.972656"/>
     </g>
    </g>
    <g id="text_12">
     <!-- $\times\mathdefault{10^{6}}\mathdefault{}$ -->
     <g transform="translate(86.636134 28.008)scale(0.2 -0.2)">
      <defs>
       <path id="DejaVuSans-d7" d="M 4488 3438 
L 3059 2003 
L 4488 575 
L 4116 197 
L 2681 1631 
L 1247 197 
L 878 575 
L 2303 2003 
L 878 3438 
L 1247 3816 
L 2681 2381 
L 4116 3816 
L 4488 3438 
z
" transform="scale(0.015625)"/>
       <path id="DejaVuSans-36" d="M 2113 2584 
Q 1688 2584 1439 2293 
Q 1191 2003 1191 1497 
Q 1191 994 1439 701 
Q 1688 409 2113 409 
Q 2538 409 2786 701 
Q 3034 994 3034 1497 
Q 3034 2003 2786 2293 
Q 2538 2584 2113 2584 
z
M 3366 4563 
L 3366 3988 
Q 3128 4100 2886 4159 
Q 2644 4219 2406 4219 
Q 1781 4219 1451 3797 
Q 1122 3375 1075 2522 
Q 1259 2794 1537 2939 
Q 1816 3084 2150 3084 
Q 2853 3084 3261 2657 
Q 3669 2231 3669 1497 
Q 3669 778 3244 343 
Q 2819 -91 2113 -91 
Q 1303 -91 875 529 
Q 447 1150 447 2328 
Q 447 3434 972 4092 
Q 1497 4750 2381 4750 
Q 2619 4750 2861 4703 
Q 3103 4656 3366 4563 
z
" transform="scale(0.015625)"/>
      </defs>
      <use xlink:href="#DejaVuSans-d7" transform="translate(0 0.765625)"/>
      <use xlink:href="#DejaVuSans-31" transform="translate(83.789062 0.765625)"/>
      <use xlink:href="#DejaVuSans-30" transform="translate(147.412109 0.765625)"/>
      <use xlink:href="#DejaVuSans-36" transform="translate(211.992188 39.046875)scale(0.7)"/>
     </g>
    </g>
   </g>
   <g id="patch_3">
    <path d="M 86.636134 361 
L 86.636134 240.01192 
L 90.638323 240.01192 
L 90.638323 361 
M 114.651455 361 
L 114.651455 115.448931 
L 118.653643 115.448931 
L 118.653643 93.209702 
L 122.655833 93.209702 
L 122.655833 85.637328 
L 126.658021 85.637328 
L 126.658021 80.734617 
L 130.660209 80.734617 
L 130.660209 77.193951 
L 134.662397 77.193951 
L 134.662397 74.348161 
L 138.664585 74.348161 
L 138.664585 71.867806 
L 142.666776 71.867806 
L 142.666776 69.604217 
L 146.668966 69.604217 
L 146.668966 67.147626 
L 150.671151 67.147626 
L 150.671151 64.630133 
L 154.673342 64.630133 
L 154.673342 61.956178 
L 158.675533 61.956178 
L 158.675533 59.001225 
L 162.677718 59.001225 
L 162.677718 55.94742 
L 166.679908 55.94742 
L 166.679908 53.182007 
L 170.682093 53.182007 
L 170.682093 50.987686 
L 174.684284 50.987686 
L 174.684284 49.285366 
L 178.686475 49.285366 
L 178.686475 48.130061 
L 182.68866 48.130061 
L 182.68866 47.647026 
L 186.690851 47.647026 
L 186.690851 48.039955 
L 190.693035 48.039955 
L 190.693035 49.147039 
L 194.695232 49.147039 
L 194.695232 51.050498 
L 198.697417 51.050498 
L 198.697417 53.356419 
L 202.699602 53.356419 
L 202.699602 55.979551 
L 206.701799 55.979551 
L 206.701799 58.783019 
L 210.703983 58.783019 
L 210.703983 61.567669 
L 214.706168 61.567669 
L 214.706168 63.997313 
L 218.708365 63.997313 
L 218.708365 66.287687 
L 222.71055 66.287687 
L 222.71055 68.38144 
L 226.712735 68.38144 
L 226.712735 70.161492 
L 230.714932 70.161492 
L 230.714932 71.681155 
L 234.717116 71.681155 
L 234.717116 73.097964 
L 238.719301 73.097964 
L 238.719301 74.292515 
L 242.721486 74.292515 
L 242.721486 75.594756 
L 246.723683 75.594756 
L 246.723683 76.581062 
L 250.725868 76.581062 
L 250.725868 77.514388 
L 254.728052 77.514388 
L 254.728052 78.319843 
L 258.730249 78.319843 
L 258.730249 79.311162 
L 262.732434 79.311162 
L 262.732434 80.276251 
L 266.734619 80.276251 
L 266.734619 81.068774 
L 270.736816 81.068774 
L 270.736816 82.052501 
L 274.739001 82.052501 
L 274.739001 82.877733 
L 278.741185 82.877733 
L 278.741185 83.651163 
L 282.743382 83.651163 
L 282.743382 84.476844 
L 286.745567 84.476844 
L 286.745567 85.353559 
L 290.747752 85.353559 
L 290.747752 86.288853 
L 294.749937 86.288853 
L 294.749937 87.267837 
L 298.752122 87.267837 
L 298.752122 88.287101 
L 302.75433 88.287101 
L 302.75433 89.34138 
L 306.756515 89.34138 
L 306.756515 90.253007 
L 310.7587 90.253007 
L 310.7587 91.483762 
L 314.760885 91.483762 
L 314.760885 92.572906 
L 318.76307 92.572906 
L 318.76307 93.907769 
L 322.765254 93.907769 
L 322.765254 95.333132 
L 326.767463 95.333132 
L 326.767463 96.748024 
L 330.769648 96.748024 
L 330.769648 98.22271 
L 334.771833 98.22271 
L 334.771833 99.676915 
L 338.774018 99.676915 
L 338.774018 101.310515 
L 342.776203 101.310515 
L 342.776203 103.191359 
L 346.778387 103.191359 
L 346.778387 104.934292 
L 350.780596 104.934292 
L 350.780596 106.769086 
L 354.782781 106.769086 
L 354.782781 108.971861 
L 358.784966 108.971861 
L 358.784966 111.100011 
L 362.787151 111.100011 
L 362.787151 113.239422 
L 366.789335 113.239422 
L 366.789335 115.567021 
L 370.79152 115.567021 
L 370.79152 118.28648 
L 374.793729 118.28648 
L 374.793729 120.460338 
L 378.795914 120.460338 
L 378.795914 123.091055 
L 382.798099 123.091055 
L 382.798099 125.784343 
L 386.800284 125.784343 
L 386.800284 128.559044 
L 390.802468 128.559044 
L 390.802468 131.241631 
L 394.804653 131.241631 
L 394.804653 134.644745 
L 398.806838 134.644745 
L 398.806838 136.76875 
L 402.809047 136.76875 
L 402.809047 140.322001 
L 406.811232 140.322001 
L 406.811232 142.7453 
L 410.813416 142.7453 
L 410.813416 144.707382 
L 414.815601 144.707382 
L 414.815601 149.169644 
L 418.817786 149.169644 
L 418.817786 151.863271 
L 422.819971 151.863271 
L 422.819971 155.029894 
L 426.82218 155.029894 
L 426.82218 157.413667 
L 430.824364 157.413667 
L 430.824364 159.979652 
L 434.826549 159.979652 
L 434.826549 162.868132 
L 438.828734 162.868132 
L 438.828734 165.37392 
L 442.830919 165.37392 
L 442.830919 167.492663 
L 446.833104 167.492663 
L 446.833104 170.978382 
L 450.835313 170.978382 
L 450.835313 174.899912 
L 454.837497 174.899912 
L 454.837497 177.488802 
L 458.839682 177.488802 
L 458.839682 180.882075 
L 462.841867 180.882075 
L 462.841867 181.572858 
L 466.844052 181.572858 
L 466.844052 184.668133 
L 470.846237 184.668133 
L 470.846237 187.318425 
L 474.848445 187.318425 
L 474.848445 188.091202 
L 478.85063 188.091202 
L 478.85063 189.807858 
L 482.852815 189.807858 
L 482.852815 195.727395 
L 486.855 195.727395 
L 486.855 361 
L 486.855 361 
" clip-path="url(#p89578d0be6)" style="fill: none; stroke: #1f77b4; stroke-linejoin: miter"/>
   </g>
   <g id="line2d_19">
    <path d="M 161.677171 361 
L 161.677171 44.397413 
" clip-path="url(#p89578d0be6)" style="fill: none; stroke-dasharray: 5.55,2.4; stroke-dashoffset: 0; stroke: #ff0000; stroke-width: 1.5"/>
   </g>
   <g id="line2d_20">
    <path d="M 211.70453 361 
L 211.70453 44.397413 
" clip-path="url(#p89578d0be6)" style="fill: none; stroke-dasharray: 5.55,2.4; stroke-dashoffset: 0; stroke: #ff0000; stroke-width: 1.5"/>
   </g>
   <g id="patch_4">
    <path d="M 86.636134 297.88 
L 86.636134 31.008 
" style="fill: none; stroke: #000000; stroke-width: 0.8; stroke-linejoin: miter; stroke-linecap: square"/>
   </g>
   <g id="patch_5">
    <path d="M 486.855 297.88 
L 486.855 31.008 
" style="fill: none; stroke: #000000; stroke-width: 0.8; stroke-linejoin: miter; stroke-linecap: square"/>
   </g>
   <g id="patch_6">
    <path d="M 86.636134 297.88 
L 486.855 297.88 
" style="fill: none; stroke: #000000; stroke-width: 0.8; stroke-linejoin: miter; stroke-linecap: square"/>
   </g>
   <g id="patch_7">
    <path d="M 86.636134 31.008 
L 486.855 31.008 
" style="fill: none; stroke: #000000; stroke-width: 0.8; stroke-linejoin: miter; stroke-linecap: square"/>
   </g>
   <g id="legend_1">
    <g id="patch_8">
     <path d="M 261.27 124.669875 
L 474.255 124.669875 
Q 477.855 124.669875 477.855 121.069875 
L 477.855 43.608 
Q 477.855 40.008 474.255 40.008 
L 261.27 40.008 
Q 257.67 40.008 257.67 43.608 
L 257.67 121.069875 
Q 257.67 124.669875 261.27 124.669875 
z
" style="fill: #ffffff; opacity: 0.5; stroke: #cccccc; stroke-linejoin: miter"/>
    </g>
    <g id="patch_9">
     <path d="M 264.87 60.885188 
L 264.87 60.885188 
L 264.87 48.285188 
L 264.87 48.285188 
L 264.87 60.885188 
z
" style="fill: none; opacity: 0"/>
    </g>
    <g id="text_13">
     <!-- Entries         8,408,179 -->
     <g transform="translate(264.87 60.885188)scale(0.18 -0.18)">
      <defs>
       <path id="DejaVuSans-45" d="M 628 4666 
L 3578 4666 
L 3578 4134 
L 1259 4134 
L 1259 2753 
L 3481 2753 
L 3481 2222 
L 1259 2222 
L 1259 531 
L 3634 531 
L 3634 0 
L 628 0 
L 628 4666 
z
" transform="scale(0.015625)"/>
       <path id="DejaVuSans-72" d="M 2631 2963 
Q 2534 3019 2420 3045 
Q 2306 3072 2169 3072 
Q 1681 3072 1420 2755 
Q 1159 2438 1159 1844 
L 1159 0 
L 581 0 
L 581 3500 
L 1159 3500 
L 1159 2956 
Q 1341 3275 1631 3429 
Q 1922 3584 2338 3584 
Q 2397 3584 2469 3576 
Q 2541 3569 2628 3553 
L 2631 2963 
z
" transform="scale(0.015625)"/>
       <path id="DejaVuSans-69" d="M 603 3500 
L 1178 3500 
L 1178 0 
L 603 0 
L 603 3500 
z
M 603 4863 
L 1178 4863 
L 1178 4134 
L 603 4134 
L 603 4863 
z
" transform="scale(0.015625)"/>
       <path id="DejaVuSans-65" d="M 3597 1894 
L 3597 1613 
L 953 1613 
Q 991 1019 1311 708 
Q 1631 397 2203 397 
Q 2534 397 2845 478 
Q 3156 559 3463 722 
L 3463 178 
Q 3153 47 2828 -22 
Q 2503 -91 2169 -91 
Q 1331 -91 842 396 
Q 353 884 353 1716 
Q 353 2575 817 3079 
Q 1281 3584 2069 3584 
Q 2775 3584 3186 3129 
Q 3597 2675 3597 1894 
z
M 3022 2063 
Q 3016 2534 2758 2815 
Q 2500 3097 2075 3097 
Q 1594 3097 1305 2825 
Q 1016 2553 972 2059 
L 3022 2063 
z
" transform="scale(0.015625)"/>
       <path id="DejaVuSans-20" transform="scale(0.015625)"/>
       <path id="DejaVuSans-38" d="M 2034 2216 
Q 1584 2216 1326 1975 
Q 1069 1734 1069 1313 
Q 1069 891 1326 650 
Q 1584 409 2034 409 
Q 2484 409 2743 651 
Q 3003 894 3003 1313 
Q 3003 1734 2745 1975 
Q 2488 2216 2034 2216 
z
M 1403 2484 
Q 997 2584 770 2862 
Q 544 3141 544 3541 
Q 544 4100 942 4425 
Q 1341 4750 2034 4750 
Q 2731 4750 3128 4425 
Q 3525 4100 3525 3541 
Q 3525 3141 3298 2862 
Q 3072 2584 2669 2484 
Q 3125 2378 3379 2068 
Q 3634 1759 3634 1313 
Q 3634 634 3220 271 
Q 2806 -91 2034 -91 
Q 1263 -91 848 271 
Q 434 634 434 1313 
Q 434 1759 690 2068 
Q 947 2378 1403 2484 
z
M 1172 3481 
Q 1172 3119 1398 2916 
Q 1625 2713 2034 2713 
Q 2441 2713 2670 2916 
Q 2900 3119 2900 3481 
Q 2900 3844 2670 4047 
Q 2441 4250 2034 4250 
Q 1625 4250 1398 4047 
Q 1172 3844 1172 3481 
z
" transform="scale(0.015625)"/>
       <path id="DejaVuSans-2c" d="M 750 794 
L 1409 794 
L 1409 256 
L 897 -744 
L 494 -744 
L 750 256 
L 750 794 
z
" transform="scale(0.015625)"/>
       <path id="DejaVuSans-37" d="M 525 4666 
L 3525 4666 
L 3525 4397 
L 1831 0 
L 1172 0 
L 2766 4134 
L 525 4134 
L 525 4666 
z
" transform="scale(0.015625)"/>
       <path id="DejaVuSans-39" d="M 703 97 
L 703 672 
Q 941 559 1184 500 
Q 1428 441 1663 441 
Q 2288 441 2617 861 
Q 2947 1281 2994 2138 
Q 2813 1869 2534 1725 
Q 2256 1581 1919 1581 
Q 1219 1581 811 2004 
Q 403 2428 403 3163 
Q 403 3881 828 4315 
Q 1253 4750 1959 4750 
Q 2769 4750 3195 4129 
Q 3622 3509 3622 2328 
Q 3622 1225 3098 567 
Q 2575 -91 1691 -91 
Q 1453 -91 1209 -44 
Q 966 3 703 97 
z
M 1959 2075 
Q 2384 2075 2632 2365 
Q 2881 2656 2881 3163 
Q 2881 3666 2632 3958 
Q 2384 4250 1959 4250 
Q 1534 4250 1286 3958 
Q 1038 3666 1038 3163 
Q 1038 2656 1286 2365 
Q 1534 2075 1959 2075 
z
" transform="scale(0.015625)"/>
      </defs>
      <use xlink:href="#DejaVuSans-45"/>
      <use xlink:href="#DejaVuSans-6e" x="63.183594"/>
      <use xlink:href="#DejaVuSans-74" x="126.5625"/>
      <use xlink:href="#DejaVuSans-72" x="165.771484"/>
      <use xlink:href="#DejaVuSans-69" x="206.884766"/>
      <use xlink:href="#DejaVuSans-65" x="234.667969"/>
      <use xlink:href="#DejaVuSans-73" x="296.191406"/>
      <use xlink:href="#DejaVuSans-20" x="348.291016"/>
      <use xlink:href="#DejaVuSans-20" x="380.078125"/>
      <use xlink:href="#DejaVuSans-20" x="411.865234"/>
      <use xlink:href="#DejaVuSans-20" x="443.652344"/>
      <use xlink:href="#DejaVuSans-20" x="475.439453"/>
      <use xlink:href="#DejaVuSans-20" x="507.226562"/>
      <use xlink:href="#DejaVuSans-20" x="539.013672"/>
      <use xlink:href="#DejaVuSans-20" x="570.800781"/>
      <use xlink:href="#DejaVuSans-20" x="602.587891"/>
      <use xlink:href="#DejaVuSans-38" x="634.375"/>
      <use xlink:href="#DejaVuSans-2c" x="697.998047"/>
      <use xlink:href="#DejaVuSans-34" x="729.785156"/>
      <use xlink:href="#DejaVuSans-30" x="793.408203"/>
      <use xlink:href="#DejaVuSans-38" x="857.03125"/>
      <use xlink:href="#DejaVuSans-2c" x="920.654297"/>
      <use xlink:href="#DejaVuSans-31" x="952.441406"/>
      <use xlink:href="#DejaVuSans-37" x="1016.064453"/>
      <use xlink:href="#DejaVuSans-39" x="1079.6875"/>
     </g>
    </g>
    <g id="patch_10">
     <path d="M 264.87 87.305813 
L 264.87 87.305813 
L 264.87 74.705813 
L 264.87 74.705813 
L 264.87 87.305813 
z
" style="fill: none; opacity: 0"/>
    </g>
    <g id="text_14">
     <!-- Mean           1.195 -->
     <g transform="translate(264.87 87.305813)scale(0.18 -0.18)">
      <defs>
       <path id="DejaVuSans-35" d="M 691 4666 
L 3169 4666 
L 3169 4134 
L 1269 4134 
L 1269 2991 
Q 1406 3038 1543 3061 
Q 1681 3084 1819 3084 
Q 2600 3084 3056 2656 
Q 3513 2228 3513 1497 
Q 3513 744 3044 326 
Q 2575 -91 1722 -91 
Q 1428 -91 1123 -41 
Q 819 9 494 109 
L 494 744 
Q 775 591 1075 516 
Q 1375 441 1709 441 
Q 2250 441 2565 725 
Q 2881 1009 2881 1497 
Q 2881 1984 2565 2268 
Q 2250 2553 1709 2553 
Q 1456 2553 1204 2497 
Q 953 2441 691 2322 
L 691 4666 
z
" transform="scale(0.015625)"/>
      </defs>
      <use xlink:href="#DejaVuSans-4d"/>
      <use xlink:href="#DejaVuSans-65" x="86.279297"/>
      <use xlink:href="#DejaVuSans-61" x="147.802734"/>
      <use xlink:href="#DejaVuSans-6e" x="209.082031"/>
      <use xlink:href="#DejaVuSans-20" x="272.460938"/>
      <use xlink:href="#DejaVuSans-20" x="304.248047"/>
      <use xlink:href="#DejaVuSans-20" x="336.035156"/>
      <use xlink:href="#DejaVuSans-20" x="367.822266"/>
      <use xlink:href="#DejaVuSans-20" x="399.609375"/>
      <use xlink:href="#DejaVuSans-20" x="431.396484"/>
      <use xlink:href="#DejaVuSans-20" x="463.183594"/>
      <use xlink:href="#DejaVuSans-20" x="494.970703"/>
      <use xlink:href="#DejaVuSans-20" x="526.757812"/>
      <use xlink:href="#DejaVuSans-20" x="558.544922"/>
      <use xlink:href="#DejaVuSans-20" x="590.332031"/>
      <use xlink:href="#DejaVuSans-31" x="622.119141"/>
      <use xlink:href="#DejaVuSans-2e" x="685.742188"/>
      <use xlink:href="#DejaVuSans-31" x="717.529297"/>
      <use xlink:href="#DejaVuSans-39" x="781.152344"/>
      <use xlink:href="#DejaVuSans-35" x="844.775391"/>
     </g>
    </g>
    <g id="patch_11">
     <path d="M 264.87 113.726438 
L 264.87 113.726438 
L 264.87 101.126438 
L 264.87 101.126438 
L 264.87 113.726438 
z
" style="fill: none; opacity: 0"/>
    </g>
    <g id="text_15">
     <!-- Std Dev       0.5307 -->
     <g transform="translate(264.87 113.726438)scale(0.18 -0.18)">
      <defs>
       <path id="DejaVuSans-64" d="M 2906 2969 
L 2906 4863 
L 3481 4863 
L 3481 0 
L 2906 0 
L 2906 525 
Q 2725 213 2448 61 
Q 2172 -91 1784 -91 
Q 1150 -91 751 415 
Q 353 922 353 1747 
Q 353 2572 751 3078 
Q 1150 3584 1784 3584 
Q 2172 3584 2448 3432 
Q 2725 3281 2906 2969 
z
M 947 1747 
Q 947 1113 1208 752 
Q 1469 391 1925 391 
Q 2381 391 2643 752 
Q 2906 1113 2906 1747 
Q 2906 2381 2643 2742 
Q 2381 3103 1925 3103 
Q 1469 3103 1208 2742 
Q 947 2381 947 1747 
z
" transform="scale(0.015625)"/>
       <path id="DejaVuSans-44" d="M 1259 4147 
L 1259 519 
L 2022 519 
Q 2988 519 3436 956 
Q 3884 1394 3884 2338 
Q 3884 3275 3436 3711 
Q 2988 4147 2022 4147 
L 1259 4147 
z
M 628 4666 
L 1925 4666 
Q 3281 4666 3915 4102 
Q 4550 3538 4550 2338 
Q 4550 1131 3912 565 
Q 3275 0 1925 0 
L 628 0 
L 628 4666 
z
" transform="scale(0.015625)"/>
       <path id="DejaVuSans-76" d="M 191 3500 
L 800 3500 
L 1894 563 
L 2988 3500 
L 3597 3500 
L 2284 0 
L 1503 0 
L 191 3500 
z
" transform="scale(0.015625)"/>
      </defs>
      <use xlink:href="#DejaVuSans-53"/>
      <use xlink:href="#DejaVuSans-74" x="63.476562"/>
      <use xlink:href="#DejaVuSans-64" x="102.685547"/>
      <use xlink:href="#DejaVuSans-20" x="166.162109"/>
      <use xlink:href="#DejaVuSans-44" x="197.949219"/>
      <use xlink:href="#DejaVuSans-65" x="274.951172"/>
      <use xlink:href="#DejaVuSans-76" x="336.474609"/>
      <use xlink:href="#DejaVuSans-20" x="395.654297"/>
      <use xlink:href="#DejaVuSans-20" x="427.441406"/>
      <use xlink:href="#DejaVuSans-20" x="459.228516"/>
      <use xlink:href="#DejaVuSans-20" x="491.015625"/>
      <use xlink:href="#DejaVuSans-20" x="522.802734"/>
      <use xlink:href="#DejaVuSans-20" x="554.589844"/>
      <use xlink:href="#DejaVuSans-20" x="586.376953"/>
      <use xlink:href="#DejaVuSans-30" x="618.164062"/>
      <use xlink:href="#DejaVuSans-2e" x="681.787109"/>
      <use xlink:href="#DejaVuSans-35" x="713.574219"/>
      <use xlink:href="#DejaVuSans-33" x="777.197266"/>
      <use xlink:href="#DejaVuSans-30" x="840.820312"/>
      <use xlink:href="#DejaVuSans-37" x="904.443359"/>
     </g>
    </g>
   </g>
  </g>
 </g>
 <defs>
  <clipPath id="p89578d0be6">
   <rect x="86.636134" y="31.008" width="400.218866" height="266.872"/>
  </clipPath>
 </defs>
</svg>
